<?xml version="1.0" encoding="utf-8"?>
<!-- Generator: Adobe Illustrator 24.0.1, SVG Export Plug-In . SVG Version: 6.00 Build 0)  -->
<svg version="1.1" id="Layer_1" xmlns="http://www.w3.org/2000/svg" xmlns:xlink="http://www.w3.org/1999/xlink" x="0px" y="0px"
	 viewBox="0 0 1807 521" style="enable-background:new 0 0 1807 521;" xml:space="preserve">
<style type="text/css">
	.st0{fill:#F4F4F4;}
</style>
<g>
	<g>
		<path class="st0" d="M321.3,240.4c0-82.8,62.7-138.6,143-138.6c66.7,0,101.2,36.6,118.9,71.9l-59.5,28.1
			c-8.8-21.3-31.7-39-59.5-39c-41.8,0-72.7,33.7-72.7,77.5c0,43.8,30.9,77.5,72.7,77.5c27.7,0,50.6-17.7,59.5-39l59.5,28.1
			c-17.3,34.5-52.2,71.9-118.9,71.9C383.9,379,321.3,322.7,321.3,240.4z"/>
		<path class="st0" d="M598.4,276.9c0-54.6,39.8-101.6,105.6-101.6c66.7,0,106,47,106,101.6s-39.4,102-106,102
			C638.2,379,598.4,331.6,598.4,276.9z M746.6,276.9c0-25.7-15.3-47-42.6-47c-26.9,0-41.8,21.3-41.8,47c0,26.1,14.9,47.4,41.8,47.4
			C731.4,324.3,746.6,303,746.6,276.9z"/>
		<path class="st0" d="M847.5,394.6c4.4,2.4,10.4,3.6,15.3,3.6c14.1,0,22.9-2.8,26.1-10.8l4.4-10.4l-77.1-196.8h65.1L925,303
			l44.2-122.9h65.5l-87.6,221.7c-15.7,41-45,50.2-81.9,51c-5.6,0-20.1-1.2-26.5-3.2L847.5,394.6z"/>
		<path class="st0" d="M1040.3,276.9c0-54.6,39.8-101.6,105.6-101.6c66.7,0,106,47,106,101.6s-39.4,102-106,102
			C1080,379,1040.3,331.6,1040.3,276.9z M1188.5,276.9c0-25.7-15.3-47-42.6-47c-26.9,0-41.8,21.3-41.8,47
			c0,26.1,14.9,47.4,41.8,47.4C1173.2,324.3,1188.5,303,1188.5,276.9z"/>
		<path class="st0" d="M1297.4,321.9v-88h-32.1v-53.8h32.1v-53h61.5v53h39.4V234h-39.4v70.7c0,11.2,6.4,19.7,17.3,19.7
			c6.8,0,13.7-2.4,15.7-4.8l12.1,46.6c-7.6,7.2-22.9,12.9-45.8,12.9C1318.7,379,1297.4,359.3,1297.4,321.9z"/>
	</g>
	<path class="st0" d="M1491.4,378.8c-15.6,0-28.9-2.7-40.1-8c-11.1-5.3-19.7-12.6-25.6-21.7c-5.9-9.2-8.9-19.4-8.9-30.8
		c0-11.9,2.9-22.3,8.7-31.2c5.8-8.9,15-15.9,27.7-21c12.6-5.1,29.1-7.6,49.4-7.6h53.1v33.8h-46.8c-13.6,0-23,2.2-28,6.7
		c-5.1,4.5-7.6,10-7.6,16.7c0,7.4,2.9,13.3,8.7,17.6c5.8,4.3,13.8,6.5,23.9,6.5c9.6,0,18.3-2.3,26-6.9c7.7-4.6,13.2-11.3,16.7-20.2
		l8.9,26.7c-4.2,12.9-11.9,22.6-23,29.3C1523.3,375.4,1509,378.8,1491.4,378.8z M1552.3,375.8v-39l-3.7-8.5v-69.8
		c0-12.4-3.8-22-11.3-28.9c-7.5-6.9-19.1-10.4-34.7-10.4c-10.6,0-21.1,1.7-31.4,5c-10.3,3.3-19,7.9-26.2,13.5l-20.8-40.5
		c10.9-7.7,24-13.6,39.3-17.8c15.3-4.2,30.9-6.3,46.8-6.3c30.4,0,54.1,7.2,70.9,21.5c16.8,14.4,25.2,36.7,25.2,67.2v113.9H1552.3z"
		/>
	<path class="st0" d="M1788,252.8c0.7-6.8-2.9-11.5-7.4-15.9c-33.1-31.9-66.2-63.9-99.4-95.9c-3.6-3.5-7.3-6.6-12.6-7.2
		c-8.8-0.9-16,1.9-19.7,10.2c-3.8,8.8-2.3,16.9,4.9,23.8c26.9,25.8,53.5,51.9,80.6,77.5c6,5.7,6.9,8.8,0.3,15
		c-27.2,25.5-53.8,51.6-80.4,77.7c-8.8,8.6-9.7,20.7-2.6,28.4c7.8,8.5,19.3,8.4,29.1-1c33.5-32.1,66.8-64.4,100.2-96.6
		C1785.7,264.4,1788.7,259.4,1788,252.8z"/>
	<path class="st0" d="M153.4,338.1c-26.9-25.8-53.5-51.9-80.6-77.5c-6.5-6.1-5.9-9.3,0.2-15.1c26.9-25.3,53.3-51,79.8-76.7
		c9.5-9.2,10.5-21.3,2.8-29.3c-8-8.2-19.3-7.9-29.2,1.6c-33.5,32.1-66.8,64.4-100.1,96.8c-9.9,9.7-9.8,21.1,0.3,30.9
		c33.3,32.4,66.7,64.5,100.1,96.7c4.2,4,8.7,7.5,15,7.1c7.8-0.3,14.2-3.5,17.2-10.9C162.5,352.9,160.5,344.9,153.4,338.1z"/>
	<path class="st0" d="M281.7,68.1c-9.3-0.3-15.9,4.4-18.4,13.7c-0.9,3.3-1.6,6.6-2.2,10c-18.7,108.2-37.4,216.4-56.2,324.5
		c-1.9,10.8,4.4,19.9,14.8,21.6c8.8,1.5,17.4-5,19.3-15.3c3.3-17.5,6.2-35.1,9.2-52.6c12.6-72.3,25.3-144.7,37.9-217
		c3.9-22.4,7.7-44.8,11.3-65.8C297.6,76.8,290.6,68.4,281.7,68.1z"/>
</g>
</svg>
