<?xml version="1.0" encoding="utf-8"?>
<!-- Generator: Adobe Illustrator 24.0.1, SVG Export Plug-In . SVG Version: 6.00 Build 0)  -->
<svg version="1.1" xmlns="http://www.w3.org/2000/svg" xmlns:xlink="http://www.w3.org/1999/xlink" x="0px" y="0px"
	 viewBox="0 0 1920 1080" style="enable-background:new 0 0 1920 1080;" xml:space="preserve">
<style type="text/css">
	.st0{fill:#181818;}
	.st1{opacity:0.71;clip-path:url(#SVGID_2_);}
	.st2{fill:#242424;}
	.st3{fill:#E8A3DE;}
	.st4{fill:none;stroke:#FFFFFF;stroke-width:0.5655;stroke-miterlimit:10;}
	.st5{fill:#D475C2;}
	.st6{fill:#9491F5;}
	.st7{fill:#FFFFFF;}
	.st8{fill:#E8ACDF;}
	.st9{fill:#E38FD3;}
	.st10{fill:none;stroke:#E7F193;stroke-width:4;stroke-miterlimit:10;}
	.st11{fill:none;stroke:#FFFFFF;stroke-width:4;stroke-miterlimit:10;}
	.st12{fill:none;stroke:#E8A3DE;stroke-width:3;stroke-miterlimit:10;}
	.st13{fill:#E7F193;}
	.st14{fill:none;stroke:#E7F193;stroke-width:2;stroke-miterlimit:10;}
	.st15{fill:#6E6BFF;}
	.st16{fill:none;stroke:#FFFFFF;stroke-width:2;stroke-miterlimit:10;}
	.st17{fill:none;stroke:#FFFFFF;stroke-width:2.1389;stroke-miterlimit:10;}
	.st18{fill:none;stroke:#FFFFFF;stroke-width:2.5513;stroke-miterlimit:10;}
	.st19{fill:#F7F4E4;}
	.st20{fill:#403CFF;}
	.st21{fill:#30313B;}
	.st22{fill:#302DBE;}
	.st23{fill:none;stroke:#000000;stroke-width:1.7423;stroke-miterlimit:10;}
	.st24{fill:none;stroke:#000000;stroke-width:1.3758;stroke-miterlimit:10;}
	.st25{fill:none;stroke:#FFFFFF;stroke-width:1.2582;stroke-miterlimit:10;}
	.st26{clip-path:url(#SVGID_4_);}
	.st27{opacity:0.71;clip-path:url(#SVGID_6_);}
	.st28{fill:#BA2C6F;}
	.st29{fill:#D475AF;}
	.st30{fill:#C74F8E;}
	.st31{fill:url(#SVGID_7_);}
	.st32{fill:url(#SVGID_8_);}
	.st33{fill:url(#SVGID_9_);}
	.st34{fill:url(#SVGID_10_);}
	.st35{fill:url(#SVGID_11_);}
	.st36{fill:url(#SVGID_12_);}
	.st37{fill:url(#SVGID_13_);}
	.st38{fill:url(#SVGID_14_);}
	.st39{fill:url(#SVGID_15_);}
	.st40{clip-path:url(#SVGID_17_);}
	.st41{fill:url(#SVGID_18_);}
	.st42{fill:url(#SVGID_19_);}
	.st43{fill:none;}
</style>
<g id="BACKGROUND">
	<rect x="3589.7" y="-22" class="st0" width="1920" height="1080"/>
	<rect x="0" y="0" class="st0" width="1920" height="1080"/>
</g>
<g id="OBJECTS">
	<g>
		<defs>
			<rect id="SVGID_1_" x="3589.7" y="-22" width="1920" height="1080"/>
		</defs>
		<clipPath id="SVGID_2_">
			<use xlink:href="#SVGID_1_"  style="overflow:visible;"/>
		</clipPath>
		<g class="st1">
			<g>
				<path class="st2" d="M3163.9,297.8c98.8-109.5,199.5-221.7,327-298.6c60.7-36.6,126.6-64.8,196.3-78.7
					c68.4-13.6,146.2-15.3,209.7,17.4c111.6,57.4,144.9,198.6,116.4,312.7c-16.8,67.4-51.2,129.1-92.5,184.5
					c-39.9,53.5-87.5,102.1-140.9,142c-102.1,76.4-232.1,127.4-361,102.9c-27.7-5.3-58.1-13.9-77.8-35.4
					c-24.6-26.9-14.2-66.5-3.8-97.3c21.5-63.2,64.4-116.9,111.3-163.4c97.2-96.5,215.4-173.3,342-225.4c63-25.9,128.4-46,195.2-59.8
					c72.9-15,148.2-23.7,222.6-17.6c130.8,10.7,265.3,82,298.4,218c16.7,68.4,6.6,140.7-13.2,207.3c-19,63.8-47.5,125-81,182.5
					C4346.6,802,4257.1,902,4151,979c-54.4,39.5-113.6,76.4-177.2,99.2c-31.4,11.2-64.4,19.2-97.9,18.9
					c-14.1-0.2-30.4-1.7-36.9-16.3c-4.4-10-2.6-21.5,0.2-31.6c6.9-24.9,21.7-47,35.3-68.7c16.6-26.4,34.5-51.5,55.3-74.9
					c43.5-48.9,95-89.8,149.9-125c54.6-35,112.5-64.7,171.3-92c68.7-31.9,138.8-61.1,211.1-84.2c134-42.8,277.8-63.8,416.4-31.5
					c116.3,27.1,236,92.4,297.1,199c49.3,86.1,40.9,194-10.1,277.3c-25.4,41.4-61,76.1-103.6,99.5c-38.3,20.9-99.6,44.8-139.9,16.4
					c-20.9-14.7-24-39.7-21.7-63.4c3.1-30.9,13.9-60.8,28.6-88c30-55.1,75.2-100.3,121.7-141.5c107.2-94.9,224-181,355.2-239.7
					c68.4-30.6,139.8-54.2,212.7-71.1c20.6-4.8,11.9-36.4-8.7-31.6c-157,36.5-303.6,104.8-433.8,199.5
					c-59.8,43.5-118,90.3-171.9,141c-48.9,45.9-94,98-119.4,160.8c-21.4,53-33.4,129.8,24.2,164.4c49.4,29.7,114.2,9.6,161.6-14.4
					c97.1-49.1,161.3-151.3,170.1-258.8c4.5-54.2-6.4-109.3-31.5-157.6c-29.2-56.1-77.1-102.9-128.4-139
					c-112.7-79.2-255.5-109-391.4-100c-161.9,10.7-316.1,69.5-461.7,137.7c-125,58.5-250.5,130.5-338.4,239.5
					c-19.8,24.6-37.1,50.8-53.4,77.7c-15.1,24.9-30.1,52.5-31.9,82.1c-2,32,18.6,59.8,50.7,65.4c34.7,6,73.1-1.4,106.4-11.3
					c69.9-20.6,134.5-58.9,193.9-100.4c57.9-40.5,111.4-87.2,159.2-139.3c95.3-103.7,173-230.3,212.4-366.1
					c20.8-71.7,29.9-149.4,11.5-222.7c-17.1-68.5-59.6-125.8-116.3-166.9c-127.1-92.2-296-84.8-442.5-54.9
					c-143.5,29.3-281.3,87.8-402.4,170.2c-60.4,41.1-118,88-168.2,141.2c-49.1,52.1-92.1,113.3-109.6,183.7
					c-9.1,36.7-8.1,75.2,17.9,104.8c21.1,24,53.6,36.5,84,43.2c67.6,14.9,138.4,10.8,204.8-7.9c136.5-38.4,253.4-132.2,338.4-243.6
					c85.2-111.8,143.4-258.7,94-398c-21.2-59.6-60.1-113.7-115.4-145.7c-67.1-38.8-148.7-41-223.5-29.4
					c-153.9,24-287.4,116-398.2,221c-56.3,53.3-108.3,110.9-160.2,168.5C3126.5,290.3,3149.7,313.6,3163.9,297.8L3163.9,297.8z"/>
			</g>
		</g>
	</g>
	<g>
		<path class="st3" d="M4556.8,461.3c-65.8,0-119.4-53.6-119.4-119.4c0-65.8,53.6-119.4,119.4-119.4c65.8,0,119.4,53.6,119.4,119.4
			C4676.2,407.7,4622.7,461.3,4556.8,461.3z M4556.8,251.5c-49.9,0-90.4,40.6-90.4,90.4c0,49.9,40.6,90.4,90.4,90.4
			c49.9,0,90.4-40.6,90.4-90.4C4647.2,292,4606.7,251.5,4556.8,251.5z"/>
	</g>
	<g>
		<rect x="4989.6" y="607.9" class="st4" width="386.9" height="386.9"/>
		<line class="st4" x1="4989.6" y1="959.6" x2="5376.5" y2="959.6"/>
		<line class="st4" x1="4989.6" y1="924.5" x2="5376.5" y2="924.5"/>
		<line class="st4" x1="4989.6" y1="889.3" x2="5376.5" y2="889.3"/>
		<line class="st4" x1="4989.6" y1="854.1" x2="5376.5" y2="854.1"/>
		<line class="st4" x1="4989.6" y1="819" x2="5376.5" y2="819"/>
		<line class="st4" x1="4989.6" y1="783.8" x2="5376.5" y2="783.8"/>
		<line class="st4" x1="4989.6" y1="748.6" x2="5376.5" y2="748.6"/>
		<line class="st4" x1="4989.6" y1="713.4" x2="5376.5" y2="713.4"/>
		<line class="st4" x1="4989.6" y1="678.3" x2="5376.5" y2="678.3"/>
		<line class="st4" x1="4989.6" y1="643.1" x2="5376.5" y2="643.1"/>
		<line class="st4" x1="5341.4" y1="607.9" x2="5341.4" y2="994.8"/>
		<line class="st4" x1="5306.2" y1="607.9" x2="5306.2" y2="994.8"/>
		<line class="st4" x1="5271" y1="607.9" x2="5271" y2="994.8"/>
		<line class="st4" x1="5235.8" y1="607.9" x2="5235.8" y2="994.8"/>
		<line class="st4" x1="5200.7" y1="607.9" x2="5200.7" y2="994.8"/>
		<line class="st4" x1="5165.5" y1="607.9" x2="5165.5" y2="994.8"/>
		<line class="st4" x1="5130.3" y1="607.9" x2="5130.3" y2="994.8"/>
		<line class="st4" x1="5095.1" y1="607.9" x2="5095.1" y2="994.8"/>
		<line class="st4" x1="5060" y1="607.9" x2="5060" y2="994.8"/>
		<line class="st4" x1="5024.8" y1="607.9" x2="5024.8" y2="994.8"/>
	</g>
	<g>
		<path class="st5" d="M4581.3,883.2h-5.7c-0.4-2.1-1.2-4.1-2.3-5.9l1.3-1.3l0,0l0,0l0,0l0,0l0,0l0,0l0,0l0,0l0,0l0,0l0,0l0,0l0,0
			l0,0l0,0l0,0l0,0l0,0l0,0l0,0l0,0l0,0l0,0l0,0l0,0l0,0l0,0l0,0l0,0l0,0l0,0l0,0l0,0l0,0l0,0l0,0l0,0l0,0l0,0l0,0l0,0l0,0l0,0l0,0
			l0,0l0,0l0,0l0,0l0,0l0,0l0,0l0,0l0,0l0,0l0,0l0,0l0,0l0,0l0,0l0,0l0,0l0,0l0,0l0,0l0,0l0,0l0,0l0,0l0,0l0,0l0,0l0,0l0,0l0,0l0,0
			l0,0l0,0l0,0l0,0l0,0l0,0l0,0l0,0l0,0l0,0l0,0l0,0l0,0l0,0l0,0l0,0l0,0l0,0l0,0l0,0l0,0l0,0l0,0l0,0l0,0l0,0l0,0l0,0l0,0l0,0l0,0
			l0,0l0,0l0,0l0,0l0,0l0,0l0,0l0,0l0,0l0,0l0,0l0,0l0,0l0,0l0,0l0,0l0,0l0,0l0,0l0,0l0,0l0,0l0,0l0,0l0,0l0,0l0,0l0,0l0,0l0,0l0,0
			l0,0l0,0l0,0l0,0l0,0l0,0l0,0l0,0l0,0l0,0l0,0l0,0l0,0l0,0l0,0l0,0l0,0l0,0l0,0l0,0l0,0l0,0l0,0l0,0l0,0l0,0l0,0l0,0l0,0l0,0l0,0
			l0,0l0,0l0,0l0,0l0,0l0,0l0,0l0,0l0,0l0,0l0,0l0,0l0,0l0,0l0,0l0,0l0,0l0,0l0,0l0,0l0,0l0,0l0,0l0,0l0,0l0,0l0,0l0,0l0,0l0,0l0,0
			l0,0l-6.5-6.5l-4,4c-1.9-1.3-4.1-2.2-6.4-2.7V862h-9.2v0h0v0h0v0h0v0h0v0h0v0h0v0h0v0h0v0h0v0h0v0h0v0h0v0h0v0h0v0h0v0h0v0h0v0h0
			v0h0v0h0v0h0v0h0v0h0v0h0v0h0v0h0v0h0v0h0v0h0v0h0v0h0v0h0v0h0v0h0v0h0v0h0v0h0v0h0v0h0v0h0v0h0v0h0v0h0v0h0v0h0v0h0v0h0v0h0v0h0
			v0h0v0h0v0h0v0h0v0h0v0h0v0h0v0h0v0h0v0h0v0h0v0h0v0h0v0h0v0h0v0h0v0h0v0h0v0h0v0h0v0h0v0h0v0h0v0h0v0h0v0h0v0h0v0h0v0h0v0h0v0h0
			v0h0v0h0v0h0v0h0v0h0v0h0v0h0v0h0v0h0v0h0v0h0v0h0v0h0v0h0v0h0v0h0v0h0v0h0v0h0v0h0v3.3c-1.2,0.5-2.3,1-3.4,1.7l-4-4l-6.5,6.5l0,0
			l0,0l0,0l0,0l0,0l0,0l0,0l0,0l0,0l0,0l0,0l0,0l0,0l0,0l0,0l0,0l0,0l0,0l0,0l0,0l0,0l0,0l0,0l0,0l0,0l0,0l0,0l0,0l0,0l0,0l0,0l0,0
			l0,0l0,0l0,0l0,0l0,0l0,0l0,0l0,0l0,0l0,0l0,0l0,0l0,0l0,0l0,0l0,0l0,0l0,0l0,0l0,0l0,0l0,0l0,0l0,0l0,0l0,0l0,0l0,0l0,0l0,0l0,0
			l0,0l0,0l0,0l0,0l0,0l0,0l0,0l0,0l0,0l0,0l0,0l0,0l0,0l0,0l0,0l0,0l0,0l0,0l0,0l0,0l0,0l0,0l0,0l0,0l0,0l0,0l0,0l0,0l0,0l0,0l0,0
			l0,0l0,0l0,0l0,0l0,0l0,0l0,0l0,0l0,0l0,0l0,0l0,0l0,0l0,0l0,0l0,0l0,0l0,0l0,0l0,0l0,0l0,0l0,0l0,0l0,0l0,0l0,0l0,0l0,0l0,0l0,0
			l0,0l0,0l0,0l0,0l0,0l0,0l0,0l0,0l0,0l0,0l0,0l0,0l0,0l0,0l0,0l0,0l0,0l0,0l0,0l0,0l0,0l0,0l0,0l0,0l0,0l0,0l0,0l0,0l0,0l0,0l0,0
			l0,0l0,0l0,0l0,0l0,0l0,0l0,0l0,0l0,0l0,0l0,0l0,0l0,0l0,0l0,0l0,0l0,0l0,0l0,0l0,0l0,0l0,0l0,0l0,0l0,0l0,0l0,0l0,0l0,0l0,0l0,0
			l0,0l0,0l0,0l0,0l0,0l0,0l0,0l0,0l0,0l0,0l0,0l0,0l0,0l4,4c-0.6,1-1.1,2-1.6,3.1h-4.3v0h0v0h0v0h0v0h0v0h0v0h0v0h0v0h0v0h0v0h0v0
			h0v0h0v0h0v0h0v0h0v0h0v0h0v0h0v0h0v0h0v0h0v0h0v0h0v0h0v0h0v0h0v0h0v0h0v0h0v0h0v0h0v0h0v0h0v0h0v0h0v0h0v0h0v0h0v0h0v0h0v0h0v0
			h0v0h0v0h0v0h0v0h0v0h0v0h0v0h0v0h0v0h0v0h0v0h0v0h0v0h0v0h0v0h0v0h0v0h0v0h0v0h0v0h0v0h0v0h0v0h0v0h0v0h0v0h0v0h0v0h0v0h0v0h0v0
			h0v0h0v0h0v0h0v0h0v0h0v0h0v0h0v0h0v0h0v0h0v0h0v0h0v0h0v0h0v0h0v0h0v0h0v0h0v0h0v0h0v0h0v0h0v0h0v0h0v0h0v0h0v0h0v9.2h6
			c0.5,2.1,1.3,4,2.4,5.8l-1.3,1.3l0,0l0,0l0,0l0,0l0,0l0,0l0,0l0,0l0,0l0,0l0,0l0,0l0,0l0,0l0,0l0,0l0,0l0,0l0,0l0,0l0,0l0,0l0,0
			l0,0l0,0l0,0l0,0l0,0l0,0l0,0l0,0l0,0l0,0l0,0l0,0l0,0l0,0l0,0l0,0l0,0l0,0l0,0l0,0l0,0l0,0l0,0l0,0l0,0l0,0l0,0l0,0l0,0l0,0l0,0
			l0,0l0,0l0,0l0,0l0,0l0,0l0,0l0,0l0,0l0,0l0,0l0,0l0,0l0,0l0,0l0,0l0,0l0,0l0,0l0,0l0,0l0,0l0,0l0,0l0,0l0,0l0,0l0,0l0,0l0,0l0,0
			l0,0l0,0l0,0l0,0l0,0l0,0l0,0l0,0l0,0l0,0l0,0l0,0l0,0l0,0l0,0l0,0l0,0l0,0l0,0l0,0l0,0l0,0l0,0l0,0l0,0l0,0l0,0l0,0l0,0l0,0l0,0
			l0,0l0,0l0,0l0,0l0,0l0,0l0,0l0,0l0,0l0,0l0,0l0,0l0,0l0,0l0,0l0,0l0,0l0,0l0,0l0,0l0,0l0,0l0,0l0,0l0,0l0,0l0,0l0,0l0,0l0,0l0,0
			l0,0l0,0l0,0l0,0l0,0l0,0l0,0l0,0l0,0l0,0l0,0l0,0l0,0l0,0l0,0l0,0l0,0l0,0l0,0l0,0l0,0l0,0l0,0l0,0l0,0l0,0l0,0l0,0l0,0l0,0l0,0
			l0,0l0,0l0,0l0,0l0,0l0,0l0,0l0,0l0,0l0,0l0,0l0,0l0,0l0,0l0,0l0,0l0,0l0,0l0,0l0,0l0,0l0,0l6.5,6.5l4.3-4.3
			c1.8,1.1,3.7,1.9,5.8,2.4v6.2h9.2v0h0v0h0v0h0v0h0v0h0v0h0v0h0v0h0v0h0v0h0v0h0v0h0v0h0v0h0v0h0v0h0v0h0v0h0v0h0v0h0v0h0v0h0v0h0
			v0h0v0h0v0h0v0h0v0h0v0h0v0h0v0h0v0h0v0h0v0h0v0h0v0h0v0h0v0h0v0h0v0h0v0h0v0h0v0h0v0h0v0h0v0h0v0h0v0h0v0h0v0h0v0h0v0h0v0h0v0h0
			v0h0v0h0v0h0v0h0v0h0v0h0v0h0v0h0v0h0v0h0v0h0v0h0v0h0v0h0v0h0v0h0v0h0v0h0v0h0v0h0v0h0v0h0v0h0v0h0v0h0v0h0v0h0v0h0v0h0v0h0v0h0
			v0h0v0h0v0h0v0h0v0h0v0h0v0h0v0h0v0h0v0h0v0h0v0h0v0h0v0h0v0h0v-3.7c1.2-0.4,2.3-1,3.3-1.6l4.2,4.2l6.5-6.5l0,0l0,0l0,0l0,0l0,0
			l0,0l0,0l0,0l0,0l0,0l0,0l0,0l0,0l0,0l0,0l0,0l0,0l0,0l0,0l0,0l0,0l0,0l0,0l0,0l0,0l0,0l0,0l0,0l0,0l0,0l0,0l0,0l0,0l0,0l0,0l0,0
			l0,0l0,0l0,0l0,0l0,0l0,0l0,0l0,0l0,0l0,0l0,0l0,0l0,0l0,0l0,0l0,0l0,0l0,0l0,0l0,0l0,0l0,0l0,0l0,0l0,0l0,0l0,0l0,0l0,0l0,0l0,0
			l0,0l0,0l0,0l0,0l0,0l0,0l0,0l0,0l0,0l0,0l0,0l0,0l0,0l0,0l0,0l0,0l0,0l0,0l0,0l0,0l0,0l0,0l0,0l0,0l0,0l0,0l0,0l0,0l0,0l0,0l0,0
			l0,0l0,0l0,0l0,0l0,0l0,0l0,0l0,0l0,0l0,0l0,0l0,0l0,0l0,0l0,0l0,0l0,0l0,0l0,0l0,0l0,0l0,0l0,0l0,0l0,0l0,0l0,0l0,0l0,0l0,0l0,0
			l0,0l0,0l0,0l0,0l0,0l0,0l0,0l0,0l0,0l0,0l0,0l0,0l0,0l0,0l0,0l0,0l0,0l0,0l0,0l0,0l0,0l0,0l0,0l0,0l0,0l0,0l0,0l0,0l0,0l0,0l0,0
			l0,0l0,0l0,0l0,0l0,0l0,0l0,0l0,0l0,0l0,0l0,0l0,0l0,0l0,0l0,0l0,0l0,0l0,0l0,0l0,0l0,0l0,0l0,0l0,0l0,0l0,0l0,0l0,0l0,0l0,0l0,0
			l0,0l0,0l0,0l0,0l0,0l0,0l0,0l0,0l0,0l-4-4c0.6-0.9,1.1-1.9,1.5-2.9h4.3v0h0v0h0v0h0v0h0v0h0v0h0v0h0v0h0v0h0v0h0v0h0v0h0v0h0v0h0
			v0h0v0h0v0h0v0h0v0h0v0h0v0h0v0h0v0h0v0h0v0h0v0h0v0h0v0h0v0h0v0h0v0h0v0h0v0h0v0h0v0h0v0h0v0h0v0h0v0h0v0h0v0h0v0h0v0h0v0h0v0h0
			v0h0v0h0v0h0v0h0v0h0v0h0v0h0v0h0v0h0v0h0v0h0v0h0v0h0v0h0v0h0v0h0v0h0v0h0v0h0v0h0v0h0v0h0v0h0v0h0v0h0v0h0v0h0v0h0v0h0v0h0v0h0
			v0h0v0h0v0h0v0h0v0h0v0h0v0h0v0h0v0h0v0h0v0h0v0h0v0h0v0h0v0h0v0h0v0h0v0h0v0h0v0h0v0h0v0h0v0h0v0h0V883.2z M4555.7,894.1
			c-3.7,0-6.7-3-6.7-6.7c0-0.9,0.2-1.7,0.5-2.4c1-0.6,2.2-1,3.5-1c3.7,0,6.7,3,6.7,6.7c0,0.9-0.2,1.7-0.5,2.4
			C4558.1,893.8,4556.9,894.1,4555.7,894.1z"/>
		<g>
			<path class="st3" d="M4555.7,894.1c-3.7,0-6.7-3-6.7-6.7c0-3.7,3-6.7,6.7-6.7c3.7,0,6.7,3,6.7,6.7
				C4562.3,891.1,4559.4,894.1,4555.7,894.1z M4581.3,892.4v-9.2h-5.7c-0.5-2.2-1.3-4.3-2.5-6.2l4.2-4.2l-6.5-6.5l-4,4
				c-1.9-1.3-4.1-2.2-6.4-2.7V862h-9.2v5.7c-2.2,0.5-4.3,1.4-6.1,2.5l-4-4l-6.5,6.5l4,4c-1.2,1.9-2.1,4-2.6,6.3h-6v9.2h6
				c0.5,2.2,1.4,4.3,2.6,6.1l-4.2,4.2l6.5,6.5l4.3-4.3c1.8,1.1,3.7,1.9,5.8,2.4v6.2h9.2v-6.1c2.2-0.5,4.2-1.3,6-2.4l4.2,4.2l6.5-6.5
				l-4-4c1.2-1.8,2.1-3.9,2.6-6.1H4581.3z"/>
		</g>
	</g>
	<g>
		<path class="st6" d="M5320.2,418.2L5320.2,418.2L5320.2,418.2L5320.2,418.2l0.1,0.1h0v0.1h0v0.1h0v0.1h0v0.1h0v0.1h0v0.1h0v0.1h0
			v0.1h0v0.1h0v0.1h0v0.1h0v0.1h0v0.1h0v0.1h0v0.1h0v0.1h0v0.1h0v0.1h0v0.1h0v0.1h0v0.1h0v0.1h0v0.1h0v0.1h0v0.1h0v0.1h0v0.1h0v0.1
			h0v0.1h0v0.1h0v0.1h0v0.1h0v0.1h0v0.1h0v0.1h0v0.1h0v0.1h0v0.1h0v0.1h0v0.1h0v0.1h0v0.1h0v0.1h0v0.1h0v0.1h0v0.1h0v0.1h0v0.1h0
			v0.1h0v0.1h0v0.1h0v0.1h0v0.1h0v0.1h0v0.1h0v0.1h0v0.1h0v0.1h0v0.1h0v0.1h0v0.1h0v0.1h0v0.1h0v0.1h0v0.1h0v0.1h0v0.1h0v0.1h0v0.1
			h0v0.1h0v0.1h0v0.1h0v0.1h0v0.1h0v0.1h0v0.1h0v0.1h0v0.1h0v0.1h0v0.1h0v0.1h0v0.1h0v0.1h0v0.1h0v0.1h0v0.1h0v0.1h0v0.1h0v0.1h0
			v0.1h0v0.1h0v0.1h0v0.1h0v0.1h0v0.1h0v0.1h0v0.1h0v0.1h7c0.7,1.6,1.6,3.2,2.5,4.7l-6.6,6.6l0,0l0,0l0,0l0,0l0,0l0,0l0,0l0,0l0,0
			l0,0l0,0l0,0l0,0l0,0l0,0l0,0l0,0l0,0l0,0l0,0l0,0l0,0l0,0l0,0l0,0l0,0l0,0l0,0l0,0l0,0l0,0l0,0l0,0l0,0l0,0l0,0l0,0l0,0l0,0l0,0
			l0,0l0,0l0,0l0,0l0,0l0,0l0,0l0,0l0,0l0,0l0,0l0,0l0,0l0,0l0,0l0,0l0,0l0,0l0,0l0,0l0,0l0,0l0,0l0,0l0,0l0,0l0,0l0,0l0,0l0,0l0,0
			l0,0l0,0l0,0l0,0l0,0l0,0l0,0l0,0l0,0l0,0l0,0l0,0l0,0l0,0l0,0l0,0l0,0l0,0l0,0l0,0l0,0l0,0l0,0l0,0l0,0l0,0l0,0l0,0l0,0l0,0l0,0
			l0,0l0,0l0,0l0,0l0,0l0,0l0,0l0,0l0,0l0,0l0,0l0,0l0,0l0,0l0,0l0,0l0,0l0,0l0,0l0,0l0,0l0,0l0,0l0,0l0,0l0,0l0,0l0,0l0,0l0,0l0,0
			l0,0l0,0l0,0l0,0l0,0l0,0l0,0l0,0l0,0l0,0l0,0l0,0l0,0l0,0l0,0l0,0l0,0l0,0l0,0l0,0l0,0l0,0l0,0l0,0l0,0l0,0l0,0l0,0l0,0l0,0l0,0
			l0,0l0,0l0,0l0,0l0,0l0,0l0,0l0,0l0,0l0,0l0,0l0,0l0,0l0,0l0,0l0,0l0,0l0,0l0,0l0,0l0,0l0,0l0,0l0,0l0,0l0,0l0,0l0,0l0,0l0,0l0,0
			l0,0l0,0l0,0l0,0l0,0l10.7,10.7l6.8-6.8c1.7,1,3.5,1.9,5.4,2.6v6h0v0.1h0v0.1h0v0.1h0v0.1h0v0.1h0v0.1h0v0.1h0v0.1h0v0.1h0v0.1h0
			v0.1h0v0.1h0v0.1h0v0.1h0v0.1h0v0.1h0v0.1h0v0.1h0v0.1h0v0.1h0v0.1h0v0.1h0v0.1h0v0.1h0v0.1h0v0.1h0v0.1h0v0.1h0v0.1h0v0.1h0v0.1
			h0v0.1h0v0.1h0v0.1h0v0.1h0v0.1h0v0.1h0v0.1h0v0.1h0v0.1h0v0.1h0v0.1h0v0.1h0v0.1h0v0.1h0v0.1h0v0.1h0v0.1h0v0.1h0v0.1h0v0.1h0
			v0.1h0v0.1h0v0.1h0v0.1h0v0.1h0v0.1h0v0.1h0v0.1h0v0.1h0v0.1h0v0.1h0v0.1h0v0.1h0v0.1h0v0.1h0v0.1h0v0.1h0v0.1h0v0.1h0v0.1h0v0.1
			h0v0.1h0v0.1h0v0.1h0v0.1h0v0.1h0v0.1h0v0.1h0v0.1h0v0.1h0v0.1h0v0.1h0v0.1h0v0.1h0v0.1h0v0.1h0v0.1h0v0.1h0v0.1h0v0.1h0v0.1h0
			v0.1h0v0.1h0v0.1h0v0.1h0v0.1h0v0.1h0v0.1h0v0.1h15.1v-10.1c3.4-0.8,6.6-2.2,9.5-4l7,7l10.7-10.7l0,0l0,0l0,0l0,0l0,0l0,0l0,0l0,0
			l0,0l0,0l0,0l0,0l0,0l0,0l0,0l0,0l0,0l0,0l0,0l0,0l0,0l0,0l0,0l0,0l0,0l0,0l0,0l0,0l0,0l0,0l0,0l0,0l0,0l0,0l0,0l0,0l0,0l0,0l0,0
			l0,0l0,0l0,0l0,0l0,0l0,0l0,0l0,0l0,0l0,0l0,0l0,0l0,0l0,0l0,0l0,0l0,0l0,0l0,0l0,0l0,0l0,0l0,0l0,0l0,0l0,0l0,0l0,0l0,0l0,0l0,0
			l0,0l0,0l0,0l0,0l0,0l0,0l0,0l0,0l0,0l0,0l0,0l0,0l0,0l0,0l0,0l0,0l0,0l0,0l0,0l0,0l0,0l0,0l0,0l0,0l0,0l0,0l0,0l0,0l0,0l0,0l0,0
			l0,0l0,0l0,0l0,0l0,0l0,0l0,0l0,0l0,0l0,0l0,0l0,0l0,0l0,0l0,0l0,0l0,0l0,0l0,0l0,0l0,0l0,0l0,0l0,0l0,0l0,0l0,0l0,0l0,0l0,0l0,0
			l0,0l0,0l0,0l0,0l0,0l0,0l0,0l0,0l0,0l0,0l0,0l0,0l0,0l0,0l0,0l0,0l0,0l0,0l0,0l0,0l0,0l0,0l0,0l0,0l0,0l0,0l0,0l0,0l0,0l0,0l0,0
			l0,0l0,0l0,0l0,0l0,0l0,0l0,0l0,0l0,0l0,0l0,0l0,0l0,0l0,0l0,0l0,0l0,0l0,0l0,0l0,0l0,0l0,0l0,0l0,0l0,0l0,0l0,0l0,0l0,0l0,0l0,0
			l0,0l0,0l0,0l0,0l0,0l0,0l-2.2-2.2c1.8-2.9,3.1-6.1,3.9-9.5h9.9v-15.1h0V408h0V408h0v-0.1h0v-0.1h0v-0.1h0v-0.1h0v-0.1h0v-0.1h0
			v-0.1h0v-0.1h0v-0.1h0v-0.1h0v-0.1h0v-0.1h0v-0.1h0v-0.1h0v-0.1h0v-0.1h0v-0.1h0V407h0V407h0v-0.1h0v-0.1h0v-0.1h0v-0.1h0v-0.1h0
			v-0.1h0v-0.1h0v-0.1h0v-0.1h0v-0.1h0v-0.1h0v-0.1h0v-0.1h0v-0.1h0v-0.1h0v-0.1h0v-0.1h0V406h0v-0.1h0v-0.1h0v-0.1h0v-0.1h0v-0.1h0
			v-0.1h0v-0.1h0v-0.1h0v-0.1h0v-0.1h0v-0.1h0v-0.1h0v-0.1h0v-0.1h0v-0.1h0v-0.1h0v-0.1h0V405h0V405h0v-0.1h0v-0.1h0v-0.1h0v-0.1h0
			v-0.1h0v-0.1h0v-0.1h0v-0.1h0v-0.1h0v-0.1h0v-0.1h0v-0.1h0v-0.1h0v-0.1h0v-0.1h0v-0.1h0v-0.1h0V404h0V404h0v-0.1h0v-0.1h0v-0.1h0
			v-0.1h0v-0.1h0v-0.1h0v-0.1h0v-0.1h0v-0.1h0v-0.1h0v-0.1h0v-0.1h0v-0.1h0v-0.1h0v-0.1h0v-0.1h0v-0.1h0V403h0V403h0v-0.1h0v-0.1h0
			v-0.1h0v-0.1h-7c-0.7-1.7-1.6-3.4-2.6-5l6.6-6.6l0,0l0,0l0,0l0,0l0,0l0,0l0,0l0,0l0,0l0,0l0,0l0,0l0,0l0,0l0,0l0,0l0,0l0,0l0,0
			l0,0l0,0l0,0l0,0l0,0l0,0l0,0l0,0l0,0l0,0l0,0l0,0l0,0l0,0l0,0l0,0l0,0l0,0l0,0l0,0l0,0l0,0l0,0l0,0l0,0l0,0l0,0l0,0l0,0l0,0l0,0
			l0,0l0,0l0,0l0,0l0,0l0,0l0,0l0,0l0,0l0,0l0,0l0,0l0,0l0,0l0,0l0,0l0,0l0,0l0,0l0,0l0,0l0,0l0,0l0,0l0,0l0,0l0,0l0,0l0,0l0,0l0,0
			l0,0l0,0l0,0l0,0l0,0l0,0l0,0l0,0l0,0l0,0l0,0l0,0l0,0l0,0l0,0l0,0l0,0l0,0l0,0l0,0l0,0l0,0l0,0l0,0l0,0l0,0l0,0l0,0l0,0l0,0l0,0
			l0,0l0,0l0,0l0,0l0,0l0,0l0,0l0,0l0,0l0,0l0,0l0,0l0,0l0,0l0,0l0,0l0,0l0,0l0,0l0,0l0,0l0,0l0,0l0,0l0,0l0,0l0,0l0,0l0,0l0,0l0,0
			l0,0l0,0l0,0l0,0l0,0l0,0l0,0l0,0l0,0l0,0l0,0l0,0l0,0l0,0l0,0l0,0l0,0l0,0l0,0l0,0l0,0l0,0l0,0l0,0l0,0l0,0l0,0l0,0l0,0l0,0l0,0
			l0,0l0,0l0,0l0,0l0,0l0,0l0,0l0,0l0,0l0,0l0,0l0,0l0,0l0,0l0,0l0,0l0,0l0,0l0,0l0,0l0,0l0,0l0,0l0,0l0,0l0,0l-10.7-10.7l-6.6,6.6
			c-1.8-1.1-3.6-2-5.6-2.8v-5.4h0v-0.1h0v-0.1h0v-0.1h0v-0.1h0v-0.1h0v-0.1h0v-0.1h0v-0.1h0v-0.1h0v-0.1h0V373h0V373h0v-0.1h0v-0.1
			h0v-0.1h0v-0.1h0v-0.1h0v-0.1h0v-0.1h0v-0.1h0v-0.1h0v-0.1h0v-0.1h0v-0.1h0v-0.1h0v-0.1h0v-0.1h0v-0.1h0v-0.1h0V372h0V372h0v-0.1
			h0v-0.1h0v-0.1h0v-0.1h0v-0.1h0v-0.1h0v-0.1h0v-0.1h0v-0.1h0v-0.1h0v-0.1h0v-0.1h0v-0.1h0v-0.1h0v-0.1h0v-0.1h0v-0.1h0V371h0V371
			h0v-0.1h0v-0.1h0v-0.1h0v-0.1h0v-0.1h0v-0.1h0v-0.1h0v-0.1h0v-0.1h0v-0.1h0v-0.1h0v-0.1h0v-0.1h0v-0.1h0v-0.1h0v-0.1h0v-0.1h0V370
			h0V370h0v-0.1h0v-0.1h0v-0.1h0v-0.1h0v-0.1h0v-0.1h0v-0.1h0v-0.1h0v-0.1h0v-0.1h0v-0.1h0v-0.1h0v-0.1h0v-0.1h0v-0.1h0v-0.1h0v-0.1
			h0V369h0V369h0v-0.1h0v-0.1h0v-0.1h0v-0.1h0v-0.1h0v-0.1h0v-0.1h0v-0.1h0v-0.1h0v-0.1h0v-0.1h0v-0.1h-15.1v9.3
			c-3.8,0.9-7.4,2.4-10.6,4.5l-6.6-6.6l-10.7,10.7l0,0l0,0l0,0l0,0l0,0l0,0l0,0l0,0l0,0l0,0l0,0l0,0l0,0l0,0l0,0l0,0l0,0l0,0l0,0
			l0,0l0,0l0,0l0,0l0,0l0,0l0,0l0,0l0,0l0,0l0,0l0,0l0,0l0,0l0,0l0,0l0,0l0,0l0,0l0,0l0,0l0,0l0,0l0,0l0,0l0,0l0,0l0,0l0,0l0,0l0,0
			l0,0l0,0l0,0l0,0l0,0l0,0l0,0l0,0l0,0l0,0l0,0l0,0l0,0l0,0l0,0l0,0l0,0l0,0l0,0l0,0l0,0l0,0l0,0l0,0l0,0l0,0l0,0l0,0l0,0l0,0l0,0
			l0,0l0,0l0,0l0,0l0,0l0,0l0,0l0,0l0,0l0,0l0,0l0,0l0,0l0,0l0,0l0,0l0,0l0,0l0,0l0,0l0,0l0,0l0,0l0,0l0,0l0,0l0,0l0,0l0,0l0,0l0,0
			l0,0l0,0l0,0l0,0l0,0l0,0l0,0l0,0l0,0l0,0l0,0l0,0l0,0l0,0l0,0l0,0l0,0l0,0l0,0l0,0l0,0l0,0l0,0l0,0l0,0l0,0l0,0l0,0l0,0l0,0l0,0
			l0,0l0,0l0,0l0,0l0,0l0,0l0,0l0,0l0,0l0,0l0,0l0,0l0,0l0,0l0,0l0,0l0,0l0,0l0,0l0,0l0,0l0,0l0,0l0,0l0,0l0,0l0,0l0,0l0,0l0,0l0,0
			l0,0l0,0l0,0l0,0l0,0l0,0l0,0l0,0l0,0l0,0l0,0l0,0l0,0l0,0l0,0l0,0l0,0l0,0l0,0l0,0l0,0l0,0l0,0l0,0l0,0l0,0l2.1,2.1
			c-1.7,3-3,6.2-3.7,9.6h-9.4V418.2z M5356.6,419.4c-0.5-1.2-0.8-2.6-0.8-4c0-6,4.9-10.9,10.9-10.9c2.1,0,4,0.6,5.7,1.6
			c0.5,1.2,0.8,2.6,0.8,4c0,6-4.9,10.9-10.9,10.9C5360.2,421,5358.2,420.4,5356.6,419.4z"/>
		<g>
			<path class="st7" d="M5351.3,410c0-6,4.9-10.9,10.9-10.9c6,0,10.9,4.9,10.9,10.9c0,6-4.9,10.9-10.9,10.9
				C5356.2,421,5351.3,416.1,5351.3,410z M5329.9,418.2c0.9,3.6,2.4,7,4.3,10l-6.6,6.6l10.7,10.7l6.8-6.8c3,1.8,6.4,3.2,9.9,4v10
				h15.1v-10.1c3.4-0.8,6.6-2.2,9.5-4l7,7l10.7-10.7l-6.9-6.9c1.9-3,3.4-6.4,4.2-10h9.9v-15.1h-9.8c-0.8-3.7-2.3-7.2-4.2-10.3
				l6.6-6.6l-10.7-10.7l-6.6,6.6c-3.1-1.9-6.4-3.3-10.1-4.2v-9.3h-15.1v9.3c-3.8,0.9-7.4,2.4-10.6,4.5l-6.6-6.6l-10.7,10.7l6.8,6.8
				c-1.9,3.1-3.2,6.5-4,10.1h-9.4v15.1H5329.9z"/>
		</g>
	</g>
	<g>
		<polygon class="st8" points="4951.9,862.7 4940.2,927.4 5026.6,917.6 		"/>
		<polygon class="st5" points="4951.9,862.7 4973.6,901.2 4940.2,927.4 		"/>
		<polygon class="st9" points="4940.2,927.4 4973.6,901.2 5026.6,917.6 		"/>
	</g>
	<g>
		<g>
			<g>
				<line class="st10" x1="4409.2" y1="610" x2="4414.9" y2="558.9"/>
			</g>
			<g>
				<line class="st10" x1="4378" y1="594.6" x2="4415.2" y2="559.1"/>
			</g>
			<g>
				<line class="st10" x1="4364" y1="562.7" x2="4415.4" y2="559.4"/>
			</g>
			<g>
				<line class="st10" x1="4373.8" y1="529.3" x2="4415.3" y2="559.7"/>
			</g>
			<g>
				<line class="st10" x1="4402.8" y1="510" x2="4415" y2="559.9"/>
			</g>
			<g>
				<line class="st10" x1="4437.5" y1="513.8" x2="4414.6" y2="559.9"/>
			</g>
			<g>
				<line class="st10" x1="4461.5" y1="539" x2="4414.4" y2="559.6"/>
			</g>
			<g>
				<line class="st10" x1="4463.7" y1="573.8" x2="4414.4" y2="559.3"/>
			</g>
			<g>
				<line class="st10" x1="4443.1" y1="601.8" x2="4414.6" y2="559"/>
			</g>
		</g>
	</g>
	<g>
		<path class="st11" d="M4682.1,956h141.4c4,0,7.3-3.3,7.3-7.3v-75.5c0-4-3.3-7.3-7.3-7.3h-56.2l-14.5-14.5l-14.5,14.5h-56.2
			c-4,0-7.3,3.3-7.3,7.3v75.5C4674.8,952.7,4678.1,956,4682.1,956z"/>
	</g>
	<g>
		<g>
			<path class="st11" d="M5228.9,179H5108c-3.4,0-6.2,2.8-6.2,6.2v64.5c0,3.4,2.8,6.2,6.2,6.2h48.1l12.4,12.4l12.4-12.4h48.1
				c3.4,0,6.2-2.8,6.2-6.2v-64.5C5235.1,181.8,5232.3,179,5228.9,179z"/>
		</g>
	</g>
	<g>
		<path class="st7" d="M4759.3,244.3c-0.5,1.1-1,2.1-1.5,3.1c-1.5,3.1-2.9,6.3-4.4,9.4c-0.1,0.2-0.2,0.5-0.3,0.7
			c-0.5,0.7-1.4,0.7-1.8-0.1c-0.3-0.6-0.5-1.3-0.7-1.9c-5.5-14.8-11-29.6-16.5-44.4c-0.2-0.6-0.4-1.1,0.1-1.6c0.5-0.5,1-0.3,1.5-0.1
			c14.2,6.1,28.3,12.2,42.5,18.3c0.2,0.1,0.4,0.2,0.6,0.3c0.7,0.4,0.7,1.4,0.1,1.8c-0.2,0.2-0.5,0.3-0.7,0.4
			c-3.6,2-7.3,3.9-10.9,5.9c-0.2,0.1-0.4,0.2-0.6,0.3c0.2,0.2,0.3,0.4,0.5,0.6c2.9,3.1,5.8,6.2,8.7,9.3c0.2,0.2,0.3,0.3,0.5,0.5
			c0.3,0.4,0.3,0.9,0,1.4c0,0,0,0,0,0.1c-1.9,2.1-3.9,4.2-5.8,6.2c-0.4,0.5-1,0.4-1.4,0c-0.1-0.1-0.3-0.3-0.4-0.4
			c-1.1-1.2-2.2-2.4-3.4-3.6c-1.8-1.9-3.5-3.8-5.3-5.7C4759.7,244.7,4759.5,244.6,4759.3,244.3z"/>
	</g>
	<g>
		<path class="st7" d="M4728.7,906.8c0-1.5-0.1-3-0.6-4.4c-0.4-1.4-1.1-2.6-2.2-3.5c-1-0.9-2.5-1.4-4.4-1.4c-2.7,0-4.8,1.2-6,3.7
			c-1.3,2.5-1.9,6.1-1.9,10.8c0,4.4,0.8,7.8,2.3,10.1c1.5,2.3,3.7,3.4,6.4,3.4c1.9,0,3.7-0.4,5.3-1.2s3.2-1.8,4.7-3
			c0.8,0.5,1.5,1.3,2.3,2.2c0.7,0.9,1.2,1.9,1.4,2.8c-1.1,1.1-2.4,2.1-4,3s-3.3,1.6-5.2,2.2c-1.9,0.5-3.8,0.8-5.9,0.8
			c-2.9,0-5.3-0.6-7.3-1.7c-2-1.2-3.6-2.7-4.7-4.7c-1.2-1.9-2-4.1-2.6-6.5c-0.5-2.4-0.8-4.9-0.8-7.3c0-4.8,0.7-8.7,2.2-11.8
			c1.5-3,3.5-5.3,5.9-6.7c2.5-1.4,5.2-2.2,8.1-2.2c2.9,0,5.4,0.5,7.6,1.6c2.1,1.1,3.8,2.5,5,4.2c1.2,1.8,1.8,3.7,1.8,5.8
			c0,1.4-0.4,2.5-1.1,3.2c-0.7,0.7-1.8,1.1-3.3,1.1c-0.6,0-1.1,0-1.5-0.1C4729.7,907,4729.2,906.9,4728.7,906.8z"/>
		<path class="st7" d="M4739.5,927.9c0.1-1.1,0.4-2.2,1-3.3c0.6-1.1,1.3-1.9,2-2.6c1.6,1,3.5,1.9,5.5,2.7c2,0.8,4.1,1.1,6.1,1.1
			c2,0,3.5-0.5,4.5-1.4c1-0.9,1.5-2,1.5-3.2c0-1-0.3-1.9-1-2.8c-0.6-0.9-1.8-1.7-3.4-2.4l-6.9-2.9c-2.4-1-4.3-2.3-5.8-4
			c-1.5-1.6-2.2-3.7-2.2-6.4c0-2.2,0.6-4.2,1.8-6c1.2-1.7,2.8-3.1,4.8-4.1c2-1,4.4-1.5,6.9-1.5c2.6,0,5,0.3,7.2,1
			c2.3,0.7,4.1,1.4,5.6,2.1c-0.1,1.1-0.3,2.2-0.8,3.2c-0.5,1.1-1.1,1.9-1.9,2.6c-1.5-0.7-3.2-1.3-5-1.9s-3.6-0.8-5.1-0.8
			c-1.9,0-3.3,0.4-4.2,1.3c-0.9,0.9-1.4,1.9-1.4,3c0,1,0.3,1.8,1,2.5c0.7,0.7,1.7,1.3,3,1.9l7,2.9c1.7,0.7,3.3,1.6,4.6,2.7
			c1.3,1.1,2.3,2.3,3,3.7c0.7,1.4,1.1,2.9,1.1,4.6c0,2.3-0.5,4.3-1.6,6.1c-1.1,1.8-2.7,3.2-4.9,4.3s-4.9,1.6-8.1,1.6
			c-2.4,0-4.8-0.4-7.3-1.1C4743.8,930.4,4741.5,929.3,4739.5,927.9z"/>
		<path class="st7" d="M4771.5,927.9c0.1-1.1,0.4-2.2,1-3.3c0.6-1.1,1.3-1.9,2-2.6c1.6,1,3.5,1.9,5.5,2.7c2,0.8,4.1,1.1,6.1,1.1
			c2,0,3.5-0.5,4.5-1.4c1-0.9,1.5-2,1.5-3.2c0-1-0.3-1.9-1-2.8c-0.6-0.9-1.8-1.7-3.4-2.4l-6.9-2.9c-2.4-1-4.3-2.3-5.8-4
			c-1.5-1.6-2.2-3.7-2.2-6.4c0-2.2,0.6-4.2,1.8-6c1.2-1.7,2.8-3.1,4.8-4.1c2-1,4.4-1.5,6.9-1.5c2.6,0,5,0.3,7.2,1
			c2.3,0.7,4.1,1.4,5.6,2.1c-0.1,1.1-0.3,2.2-0.8,3.2c-0.5,1.1-1.1,1.9-1.9,2.6c-1.5-0.7-3.2-1.3-5-1.9s-3.6-0.8-5.1-0.8
			c-1.9,0-3.3,0.4-4.2,1.3c-0.9,0.9-1.4,1.9-1.4,3c0,1,0.3,1.8,1,2.5c0.7,0.7,1.7,1.3,3,1.9l7,2.9c1.7,0.7,3.3,1.6,4.6,2.7
			c1.3,1.1,2.3,2.3,3,3.7c0.7,1.4,1.1,2.9,1.1,4.6c0,2.3-0.5,4.3-1.6,6.1c-1.1,1.8-2.7,3.2-4.9,4.3s-4.9,1.6-8.1,1.6
			c-2.4,0-4.8-0.4-7.3-1.1C4775.8,930.4,4773.5,929.3,4771.5,927.9z"/>
	</g>
	<g>
		<path class="st7" d="M5120,226.4c0.7,0.4,1.4,0.8,2.2,1c0.8,0.3,1.6,0.4,2.4,0.4c1.8,0,3-0.5,3.7-1.6c0.6-1.1,0.9-2.7,0.9-4.9
			v-20.8c0.5-0.1,1-0.2,1.6-0.2c0.6,0,1.1,0,1.5,0c0.4,0,0.9,0,1.5,0c0.6,0,1.1,0.1,1.6,0.2v20c0,1.8-0.1,3.4-0.4,4.9
			s-0.8,2.8-1.5,4c-0.7,1.1-1.8,2-3.1,2.6c-1.3,0.6-3.1,0.9-5.2,0.9c-1.2,0-2.5-0.2-3.9-0.5c-1.4-0.3-2.6-0.8-3.6-1.5
			c0.1-0.8,0.4-1.6,0.8-2.5C5119,227.8,5119.5,227,5120,226.4z"/>
		<path class="st7" d="M5149.3,200.6c0.5-0.1,1.1-0.1,1.8-0.2c0.7,0,1.3-0.1,1.8-0.1c0.5,0,1.1,0,1.8,0.1c0.7,0,1.3,0.1,1.8,0.2
			l10.3,31.6c-0.4,0.3-1,0.4-1.7,0.6c-0.7,0.1-1.3,0.2-1.9,0.2c-1,0-1.8-0.2-2.3-0.7c-0.6-0.5-1-1.4-1.4-2.7l-4.2-14
			c-0.4-1.3-0.8-2.8-1.3-4.5c-0.5-1.7-0.9-3.2-1.2-4.6h-0.3c-0.2,0.8-0.4,1.6-0.6,2.6c-0.2,0.9-0.5,1.9-0.8,2.8
			c-0.3,0.9-0.5,1.8-0.7,2.5l-5.6,18.3c-0.4,0.1-0.8,0.2-1.3,0.2c-0.5,0-0.9,0-1.4,0c-0.5,0-1,0-1.6-0.1c-0.6-0.1-1.1-0.2-1.4-0.3
			l-0.2-0.3L5149.3,200.6z M5149.2,225.4c-0.2,0-0.5,0-0.8,0c-0.4,0-0.7,0-1.1,0c-0.4,0-0.6,0-0.8,0h-3.2l1.9-5h2.8
			c0.2,0,0.4,0,0.8,0s0.7,0,1,0s0.6,0,0.8,0h4c0.2,0,0.5,0,0.8,0s0.7,0,1,0s0.6,0,0.8,0h2.9l1.6,5h-3.2c-0.2,0-0.5,0-0.8,0
			c-0.4,0-0.7,0-1.1,0c-0.4,0-0.6,0-0.8,0H5149.2z"/>
		<path class="st7" d="M5186.4,200.6c0.4-0.1,0.9-0.2,1.4-0.2c0.5,0,0.9,0,1.3,0c0.4,0,0.9,0,1.4,0.1c0.6,0.1,1,0.2,1.4,0.3l0.3,0.4
			l-9,31.5c-0.7,0.1-1.5,0.1-2.4,0.2c-0.9,0-1.7,0.1-2.5,0.1c-1.2,0-2.1-0.2-2.8-0.6c-0.7-0.4-1.2-1.2-1.5-2.3l-8.2-28.8
			c0.6-0.3,1.2-0.5,1.9-0.7c0.6-0.2,1.3-0.3,2-0.3c0.9,0,1.6,0.2,2.2,0.7c0.5,0.5,0.9,1.3,1.2,2.4l4.2,15.1c0.2,0.8,0.5,1.7,0.7,2.7
			c0.2,1,0.4,1.9,0.7,2.9c0.2,1,0.4,1.9,0.6,2.7c0.1,0.4,0.2,0.5,0.5,0.5L5186.4,200.6z"/>
		<path class="st7" d="M5201.6,200.6c0.5-0.1,1.1-0.1,1.8-0.2c0.7,0,1.3-0.1,1.8-0.1c0.5,0,1.1,0,1.8,0.1c0.7,0,1.3,0.1,1.8,0.2
			l10.3,31.6c-0.4,0.3-1,0.4-1.7,0.6c-0.7,0.1-1.3,0.2-1.9,0.2c-1,0-1.8-0.2-2.3-0.7c-0.6-0.5-1-1.4-1.4-2.7l-4.2-14
			c-0.4-1.3-0.8-2.8-1.3-4.5c-0.5-1.7-0.9-3.2-1.2-4.6h-0.3c-0.2,0.8-0.4,1.6-0.6,2.6c-0.2,0.9-0.5,1.9-0.8,2.8
			c-0.3,0.9-0.5,1.8-0.7,2.5l-5.6,18.3c-0.4,0.1-0.8,0.2-1.3,0.2c-0.5,0-0.9,0-1.4,0c-0.5,0-1,0-1.6-0.1c-0.6-0.1-1.1-0.2-1.4-0.3
			l-0.2-0.3L5201.6,200.6z M5201.5,225.4c-0.2,0-0.5,0-0.8,0c-0.4,0-0.7,0-1.1,0c-0.4,0-0.6,0-0.8,0h-3.2l1.9-5h2.8
			c0.2,0,0.4,0,0.8,0s0.7,0,1,0s0.6,0,0.8,0h4c0.2,0,0.5,0,0.8,0s0.7,0,1,0s0.6,0,0.8,0h2.9l1.6,5h-3.2c-0.2,0-0.5,0-0.8,0
			c-0.4,0-0.7,0-1.1,0c-0.4,0-0.6,0-0.8,0H5201.5z"/>
	</g>
	<g>
		<path class="st7" d="M5312.5,123.6h-230.3c-6.6,0-12.1-5.4-12.1-12.1l0,0c0-6.6,5.4-12.1,12.1-12.1h230.3
			c6.6,0,12.1,5.4,12.1,12.1l0,0C5324.6,118.2,5319.1,123.6,5312.5,123.6z"/>
		<g>
			<g>
				<path class="st12" d="M4102.9,880.8h-109.4c-17.8,0-32.3-14.5-32.3-32.3c0-17.8,14.5-32.3,32.3-32.3h109.4
					c17.8,0,32.3,14.5,32.3,32.3C4135.2,866.4,4120.7,880.8,4102.9,880.8z"/>
			</g>
		</g>
		<g>
			<g>
				<g>
					<path class="st13" d="M3913.2,880.8h-109.4c-17.8,0-32.3-14.5-32.3-32.3c0-17.8,14.5-32.3,32.3-32.3h109.4
						c17.8,0,32.3,14.5,32.3,32.3C3945.4,866.4,3930.9,880.8,3913.2,880.8z"/>
				</g>
			</g>
		</g>
		<g>
			<g>
				<path class="st13" d="M4079.8,361.7h-82.9c-18.4,0-33.3-14.9-33.3-33.3c0-18.4,14.9-33.3,33.3-33.3h82.9
					c18.4,0,33.3,14.9,33.3,33.3C4113.1,346.7,4098.1,361.7,4079.8,361.7z M3996.9,301.8c-14.7,0-26.6,11.9-26.6,26.6
					c0,14.7,11.9,26.6,26.6,26.6h82.9c14.7,0,26.6-11.9,26.6-26.6c0-14.7-11.9-26.6-26.6-26.6H3996.9z"/>
			</g>
		</g>
		<g>
			<circle class="st13" cx="3822.5" cy="111.5" r="8.2"/>
			<g>
				<g>
					<path class="st13" d="M3823.3,125.2h-34.2c-7.6,0-13.7-6.2-13.7-13.7s6.2-13.7,13.7-13.7h34.2c7.6,0,13.7,6.2,13.7,13.7
						S3830.8,125.2,3823.3,125.2z M3789.1,100.5c-6,0-11,4.9-11,11c0,6,4.9,11,11,11h34.2c6,0,11-4.9,11-11c0-6-4.9-11-11-11H3789.1
						z"/>
				</g>
			</g>
		</g>
		<g>
			<line class="st14" x1="3993.6" y1="631.1" x2="3964.1" y2="660.6"/>
			<polyline class="st14" points="3966.6,631.1 3993.6,631.1 3993.6,658.1 			"/>
		</g>
		<g>
			<path class="st15" d="M5223.8,812.9H4585c-9,0-16.4-7.4-16.4-16.4V378.1c0-9,7.4-16.4,16.4-16.4h638.7c9,0,16.4,7.4,16.4,16.4
				v418.4C5240.2,805.5,5232.8,812.9,5223.8,812.9z"/>
		</g>
	</g>
	<g>
		<g>
			<path class="st11" d="M5265.3,776.4h-718.8c-9.6,0-17.5-7.9-17.5-17.5V314.2c0-9.6,7.9-17.5,17.5-17.5h718.8
				c9.6,0,17.5,7.9,17.5,17.5v444.8C5282.8,768.5,5275,776.4,5265.3,776.4z"/>
			<line class="st16" x1="5196.8" y1="325.6" x2="5214" y2="325.6"/>
			<path class="st16" d="M4564,325.6c0-4-3.2-7.2-7.2-7.2c-4,0-7.2,3.2-7.2,7.2s3.2,7.2,7.2,7.2C4560.8,332.8,4564,329.6,4564,325.6
				z"/>
			<path class="st16" d="M4582.9,325.6c0-4-3.2-7.2-7.2-7.2c-4,0-7.2,3.2-7.2,7.2s3.2,7.2,7.2,7.2
				C4579.7,332.8,4582.9,329.6,4582.9,325.6z"/>
			<path class="st16" d="M4601.9,325.6c0-4-3.2-7.2-7.2-7.2c-4,0-7.2,3.2-7.2,7.2s3.2,7.2,7.2,7.2
				C4598.7,332.8,4601.9,329.6,4601.9,325.6z"/>
			<g>
				
					<ellipse transform="matrix(0.9732 -0.2298 0.2298 0.9732 63.5253 1196.8682)" class="st16" cx="5171.5" cy="325.6" rx="11" ry="11"/>
				<polyline class="st16" points="5176.9,323.8 5171.6,329.7 5171.5,329.6 5166.1,323.7 				"/>
			</g>
			<line class="st16" x1="5205.4" y1="317.1" x2="5205.4" y2="334.2"/>
			<g>
				<rect x="5230.3" y="317.2" class="st16" width="6.3" height="6.3"/>
				<rect x="5241.9" y="317.2" class="st16" width="6.3" height="6.3"/>
				<rect x="5230.3" y="327.8" class="st16" width="6.3" height="6.3"/>
				<rect x="5241.9" y="327.8" class="st16" width="6.3" height="6.3"/>
			</g>
			<polyline class="st17" points="4900.9,333.4 4892.5,325.7 4892.6,325.6 4901,317.9 			"/>
			<polyline class="st17" points="4924.5,317.9 4932.9,325.6 4932.8,325.7 4924.4,333.4 			"/>
		</g>
		<g>
			<g>
				<rect x="4601.4" y="469" class="st18" width="245" height="279.1"/>
				<line class="st18" x1="4601.4" y1="469" x2="4846.5" y2="748.1"/>
				<line class="st18" x1="4601.4" y1="748.1" x2="4846.5" y2="469"/>
			</g>
			<rect x="4876.2" y="514.5" class="st19" width="181.4" height="21"/>
			<line class="st11" x1="4876.2" y1="563.6" x2="5058.7" y2="563.6"/>
			<line class="st11" x1="4876.2" y1="586.4" x2="5157.3" y2="586.4"/>
			<line class="st11" x1="4876.2" y1="607.9" x2="5157.3" y2="607.9"/>
			<g>
				<g>
					<rect x="4879.8" y="633.9" class="st13" width="99.4" height="99.4"/>
					<g>
						<rect x="4872.3" y="625.9" width="18.2" height="18.2"/>
						<rect x="4968.6" y="625.9" width="18.2" height="18.2"/>
						<rect x="4872.3" y="723.2" width="18.2" height="18.2"/>
						<rect x="4968.6" y="723.2" width="18.2" height="18.2"/>
					</g>
				</g>
				<g>
					<g>
						<path class="st20" d="M4929.5,683.9c-14.4,0-26.1,11.7-26.1,26.1h52.2C4955.7,695.6,4944,683.9,4929.5,683.9z"/>
						
							<ellipse transform="matrix(0.3827 -0.9239 0.9239 0.3827 2425.4519 4966.9937)" class="st20" cx="4929.5" cy="668.5" rx="11.3" ry="11.3"/>
					</g>
				</g>
			</g>
			<g>
				<path class="st19" d="M5075.1,492.9H4887c-7.1,0-12.9-5.8-12.9-12.9l0,0c0-7.1,5.8-12.9,12.9-12.9h188.1
					c7.1,0,12.9,5.8,12.9,12.9l0,0C5088,487.1,5082.2,492.9,5075.1,492.9z"/>
				<path class="st21" d="M5078.5,486.3l-2.8-2.8c2.1-2.7,2-6.7-0.5-9.1c-2.7-2.7-7.1-2.7-9.7,0c-1.3,1.3-2,3-2,4.9
					c0,1.8,0.7,3.6,2,4.9c1.3,1.3,3.1,2,4.9,2c1.5,0,3-0.5,4.3-1.5l2.8,2.8L5078.5,486.3z M5066.5,483c-1-1-1.6-2.3-1.6-3.7
					c0-1.4,0.6-2.7,1.6-3.7c1-1,2.4-1.5,3.7-1.5c1.4,0,2.7,0.5,3.7,1.5c2.1,2.1,2.1,5.4,0,7.5C5071.9,485.1,5068.6,485.1,5066.5,483
					z"/>
			</g>
			<g>
				<polygon class="st22" points="5002.4,733.3 5002.4,733.3 5002.4,733.3 				"/>
				<polygon class="st22" points="5081,683.3 5155.1,731.5 5155.1,634.4 5154.3,635 5154,635.2 				"/>
				<polygon class="st22" points="5147.2,633.9 5008.4,633.9 5078.2,679.4 				"/>
				<polygon class="st22" points="5078.3,687.3 5008.5,733.3 5149,733.3 				"/>
				<polygon class="st22" points="5002.4,635.7 5002.4,731.5 5075.5,683.3 				"/>
				<polygon class="st15" points="5152.3,632.7 5150.4,633.9 5153.2,633.9 				"/>
			</g>
		</g>
	</g>
	<g>
		<g>
			<path class="st3" d="M5191,419.9l-45.6-57.3c0,0-13.2,0-4.1,21.3l12.2,30L5191,419.9z"/>
			<path class="st3" d="M5137.6,440.3c-2.4-2.3-5.7-3.3-8.9-2.7l-32.9,6.1c-4.6,0.9-9.4,0.2-13.6-1.9c-5.3-2.6-10.8-7.1-7.9-14
				l62.5-24.7c3.6-1.4,7.8-1,11,1.2l43.2,15.6l18.1,22L5137.6,440.3z"/>
			<path class="st3" d="M5287.6,478.4l10.3,89.2c0,0-19.1-0.5-43-3.4c-41.6-5-104-17.5-133.8-47.8c-2.2-2.2-5-3.7-8.1-4.6
				c-10.3-2.9-33.6-10.8-28.5-20.4c7.6-14.2,50.5-4.3,50.5-4.3s32.2,10.2,34.1-2.8c1.5-10-19-23.1-28.5-28.6
				c-2.8-1.6-6.3-1.8-9.3-0.4l-30.4,14.1c-4.3,2-9.1,2.5-13.6,1.5c-5.8-1.2-12.2-4.3-11.1-11.6l54.5-39.3c3.2-2.3,7.3-2.9,11-1.6
				l67.5,23.5l31.1,35.3L5287.6,478.4z"/>
			<path class="st23" d="M5098.4,443.4l32.3-23.3c3.2-2.3,7.3-2.9,11-1.6l40.5,14.1"/>
			<line class="st23" x1="5150.1" y1="405.2" x2="5180.6" y2="415.9"/>
			<path class="st23" d="M5117,510.4c0,0-0.3-7.2,2.7-11.4"/>
		</g>
		
			<image style="overflow:visible;" width="403" height="339" xlink:href="FB17A021.png"  transform="matrix(1 0 0 1 5072.7144 362)">
		</image>
	</g>
	<polygon class="st13" points="5115.6,749.6 5168.2,793.5 5185.5,727.2 5197.6,794.7 5253.5,754.9 5219.3,814.4 5287.7,819.9 
		5223.3,843.5 5272.2,891.6 5207.7,868.3 5214.2,936.6 5179.7,877.3 5140.8,933.8 5152.5,866.2 5086.4,884.5 5138.8,840.2 
		5076.5,811.7 5145,811.5 	"/>
	<g>
		<g>
			<g>
				<g>
					<path class="st13" d="M4481.8,690.1l98.5,9.6c0,0,7.4,16.6-22.6,19.1l-20.7,1"/>
				</g>
				<g>
					<path class="st13" d="M4474.6,705l98.5,9.6c0,0,7.4,16.6-22.6,19.1l-20.7,1"/>
				</g>
				<g>
					<path class="st13" d="M4458.5,718.8l98.5,9.6c0,0,7.4,16.6-22.6,19.1l-43,0.8"/>
				</g>
			</g>
		</g>
		<path class="st24" d="M4515.4,731.6c0,0,26.3,2.3,42.4,0.4"/>
		<path class="st24" d="M4517.5,712.5c0,0,38.1,2.1,54.3,1.7"/>
	</g>
	<g>
		<path class="st20" d="M4426.2,679.3c-0.1,6.4,1.3,12.6,3.8,18.1l77.3,0.7l90.1,0.9l33.7-17.7l-33.3-18.4l-90.1-0.9l-77.2-0.7
			C4427.7,666.8,4426.2,672.9,4426.2,679.3z"/>
		<line class="st25" x1="4439.3" y1="697.5" x2="4439.6" y2="661.4"/>
	</g>
	<g>
		<path class="st13" d="M4494.1,713.3c0,0,46.4-45.6,49.9-50.9c1.8-2.6,3.8-2.8,5.4-2.4c1.6,0.5,2.7,1.7,3.4,3.2
			c11.2,24.7-24.1,57.2-24.1,57.2s8.4,30.6-18,60.4l-70.5,90.6l-54.6-54.7l42.8-43.7l15.1-80.4c0.9-4.7,3.4-9,7.2-12l47.5-38.6
			l99-1.4c0,0,9.1,15.7-20.3,21.4l-2.8,0.4l-21.5-0.3"/>
		<g>
			<defs>
				<path id="SVGID_3_" d="M4503.2,705.2l31.6-33.4c0,0,12.1-23.4,24.1-11.2l-8.6-14.7l-126.1-3.5l-9.1,68.5L4503.2,705.2z"/>
			</defs>
			<clipPath id="SVGID_4_">
				<use xlink:href="#SVGID_3_"  style="overflow:visible;"/>
			</clipPath>
			<g class="st26">
				<path class="st20" d="M4426.2,679.3c-0.1,6.4,1.3,12.6,3.8,18.1l77.3,0.7l90.1,0.9l33.7-17.7l-33.3-18.4l-90.1-0.9l-77.2-0.7
					C4427.7,666.8,4426.2,672.9,4426.2,679.3z"/>
				<line class="st25" x1="4449.1" y1="697.5" x2="4449.5" y2="661.4"/>
			</g>
		</g>
	</g>
	
		<image style="overflow:visible;" width="534" height="325" xlink:href="FB17A023.png"  transform="matrix(0.9724 0 0 0.9565 4210.7144 648.1429)">
	</image>
	<g>
		<path class="st24" d="M4500.9,706.6l36.1-38.4c0,0,10-16.4,17.6-1.2"/>
		<path class="st24" d="M4543.8,702.9c-2.4,3.6-15.2,17.6-15.2,17.6c0.5,1.7,0.8,7.3,1,11.4c0.1,2.9-0.1,5.9-0.6,8.8l-1.9,10.8"/>
	</g>
	<g>
		<g>
			<path class="st13" d="M5021.2,401.8h-164c-5.6,0-10.2-4.6-10.2-10.2V261.7c0-5.6,4.6-10.2,10.2-10.2h164
				c5.6,0,10.2,4.6,10.2,10.2v129.8C5031.5,397.2,5026.9,401.8,5021.2,401.8z"/>
			<polygon class="st13" points="4916.3,401.3 4939.3,424.2 4962.2,401.3 			"/>
		</g>
		<g>
			<path d="M4913.8,304.4c1.2,0.7,2.2,1.7,3.1,3.1c0.8,1.4,1.3,2.9,1.5,4.5l-22.4,11.7c-0.9,0.4-2.1,1-3.6,1.7
				c-1.5,0.7-2.6,1.2-3.4,1.6v0.6c0.8,0.3,1.9,0.8,3.4,1.5s2.7,1.2,3.6,1.7l22.4,11.7c-0.2,1.6-0.7,3.1-1.6,4.5
				c-0.9,1.4-1.9,2.5-3,3.2l-34.7-19.1c-0.3-1.2-0.5-2.4-0.5-3.9c0-1.4,0.1-2.7,0.5-3.9L4913.8,304.4z"/>
			<path d="M4950.1,289.8c1.4,0.1,2.9,0.4,4.4,1c1.5,0.5,2.9,1.3,4,2.2l-29.7,78.9c-1.4-0.1-2.9-0.5-4.4-1c-1.5-0.5-2.9-1.3-4.1-2.2
				L4950.1,289.8z"/>
			<path d="M4964.9,350.1c-1.1-0.7-2.1-1.7-3-3.1c-0.9-1.4-1.4-2.9-1.5-4.5l22.4-11.8c0.9-0.5,2.1-1,3.5-1.7
				c1.5-0.7,2.6-1.2,3.4-1.5v-0.6c-0.8-0.3-1.9-0.9-3.4-1.5c-1.5-0.7-2.7-1.2-3.5-1.7l-22.4-11.7c0.2-1.6,0.7-3.2,1.6-4.6
				c0.9-1.4,1.9-2.5,3-3.2l34.8,19.1c0.3,1.1,0.4,2.4,0.5,3.8c0,1.4-0.1,2.7-0.5,3.9L4964.9,350.1z"/>
		</g>
	</g>
	<g>
		<defs>
			<rect id="SVGID_5_" width="1920" height="1080"/>
		</defs>
		<clipPath id="SVGID_6_">
			<use xlink:href="#SVGID_5_"  style="overflow:visible;"/>
		</clipPath>
		<g class="st27">
			<g>
				<path class="st2" d="M-425.9,319.8C-327,210.3-226.3,98.1-98.8,21.2C-38.1-15.4,27.7-43.6,97.4-57.5
					c68.4-13.6,146.2-15.3,209.7,17.4C418.7,17.3,452,158.5,423.5,272.6C406.7,340,372.3,401.6,331,457
					c-39.9,53.5-87.5,102.1-140.9,142C88,675.5-42,726.5-170.8,702c-27.7-5.3-58.1-13.9-77.8-35.4c-24.6-26.9-14.2-66.5-3.8-97.3
					c21.5-63.2,64.4-116.9,111.3-163.4c97.2-96.5,215.4-173.3,342-225.4c63-25.9,128.4-46,195.2-59.8c72.9-15,148.2-23.7,222.6-17.6
					c130.8,10.7,265.3,82,298.4,218c16.7,68.4,6.6,140.7-13.2,207.3c-19,63.8-47.5,125-81,182.5C756.9,824,667.4,924,561.3,1001
					c-54.4,39.5-113.6,76.4-177.2,99.2c-31.4,11.2-64.4,19.2-97.9,18.9c-14.1-0.2-30.4-1.7-36.9-16.3c-4.4-10-2.6-21.5,0.2-31.6
					c6.9-24.9,21.7-47,35.3-68.7c16.6-26.4,34.5-51.5,55.3-74.9c43.5-48.9,95-89.8,149.9-125c54.6-35,112.5-64.7,171.3-92
					c68.7-31.9,138.8-61.1,211.1-84.2c134-42.8,277.8-63.8,416.4-31.5c116.3,27.1,236,92.4,297.1,199c49.3,86.1,40.9,194-10.1,277.3
					c-25.4,41.4-61,76.1-103.6,99.5c-38.3,20.9-99.6,44.8-139.9,16.4c-20.9-14.7-24-39.7-21.7-63.4c3.1-30.9,13.9-60.8,28.6-88
					c30-55.1,75.2-100.3,121.7-141.5c107.2-94.9,224-181,355.2-239.7c68.4-30.6,139.8-54.2,212.7-71.1c20.6-4.8,11.9-36.4-8.7-31.6
					c-157,36.5-303.6,104.8-433.8,199.5c-59.8,43.5-118,90.3-171.9,141c-48.9,45.9-94,98-119.4,160.8
					c-21.4,53-33.4,129.8,24.2,164.4c49.4,29.7,114.2,9.6,161.6-14.4c97.1-49.1,161.3-151.3,170.1-258.8
					c4.5-54.2-6.4-109.3-31.5-157.6c-29.2-56.1-77.1-102.9-128.4-139c-112.7-79.2-255.5-109-391.4-100
					c-161.9,10.7-316.1,69.5-461.7,137.7c-125,58.5-250.5,130.5-338.4,239.5c-19.8,24.6-37.1,50.8-53.4,77.7
					c-15.1,24.9-30.1,52.5-31.9,82.1c-2,32,18.6,59.8,50.7,65.4c34.7,6,73.1-1.4,106.4-11.3c69.9-20.6,134.5-58.9,193.9-100.4
					c57.9-40.5,111.4-87.2,159.2-139.3c95.3-103.7,173-230.3,212.4-366.1c20.8-71.7,29.9-149.4,11.5-222.7
					c-17.1-68.5-59.6-125.8-116.3-166.9c-127.1-92.2-296-84.8-442.5-54.9C245.9,117.9,108,176.5-13,258.8
					c-60.4,41.1-118,88-168.2,141.2c-49.1,52.1-92.1,113.3-109.6,183.7c-9.1,36.7-8.1,75.2,17.9,104.8c21.1,24,53.6,36.5,84,43.2
					c67.6,14.9,138.4,10.8,204.8-7.9c136.5-38.4,253.4-132.2,338.4-243.6c85.2-111.8,143.4-258.7,94-398
					C427.1,22.7,388.2-31.4,332.9-63.4c-67.1-38.8-148.7-41-223.5-29.4c-153.9,24-287.4,116-398.2,221
					c-56.3,53.3-108.3,110.9-160.2,168.5C-463.2,312.3-440,335.6-425.9,319.8L-425.9,319.8z"/>
			</g>
		</g>
	</g>
	<g>
		<g>
			<path class="st28" d="M967.1,461.3c-65.8,0-119.4-53.6-119.4-119.4c0-65.8,53.6-119.4,119.4-119.4c65.8,0,119.4,53.6,119.4,119.4
				C1086.5,407.7,1033,461.3,967.1,461.3z M967.1,251.5c-49.9,0-90.4,40.6-90.4,90.4c0,49.9,40.6,90.4,90.4,90.4
				c49.9,0,90.4-40.6,90.4-90.4C1057.5,292,1017,251.5,967.1,251.5z"/>
		</g>
	</g>
	<g>
		<rect x="1399.9" y="607.9" class="st4" width="386.9" height="386.9"/>
		<line class="st4" x1="1399.9" y1="959.6" x2="1786.8" y2="959.6"/>
		<line class="st4" x1="1399.9" y1="924.5" x2="1786.8" y2="924.5"/>
		<line class="st4" x1="1399.9" y1="889.3" x2="1786.8" y2="889.3"/>
		<line class="st4" x1="1399.9" y1="854.1" x2="1786.8" y2="854.1"/>
		<line class="st4" x1="1399.9" y1="819" x2="1786.8" y2="819"/>
		<line class="st4" x1="1399.9" y1="783.8" x2="1786.8" y2="783.8"/>
		<line class="st4" x1="1399.9" y1="748.6" x2="1786.8" y2="748.6"/>
		<line class="st4" x1="1399.9" y1="713.4" x2="1786.8" y2="713.4"/>
		<line class="st4" x1="1399.9" y1="678.3" x2="1786.8" y2="678.3"/>
		<line class="st4" x1="1399.9" y1="643.1" x2="1786.8" y2="643.1"/>
		<line class="st4" x1="1751.6" y1="607.9" x2="1751.6" y2="994.8"/>
		<line class="st4" x1="1716.5" y1="607.9" x2="1716.5" y2="994.8"/>
		<line class="st4" x1="1681.3" y1="607.9" x2="1681.3" y2="994.8"/>
		<line class="st4" x1="1646.1" y1="607.9" x2="1646.1" y2="994.8"/>
		<line class="st4" x1="1610.9" y1="607.9" x2="1610.9" y2="994.8"/>
		<line class="st4" x1="1575.8" y1="607.9" x2="1575.8" y2="994.8"/>
		<line class="st4" x1="1540.6" y1="607.9" x2="1540.6" y2="994.8"/>
		<line class="st4" x1="1505.4" y1="607.9" x2="1505.4" y2="994.8"/>
		<line class="st4" x1="1470.2" y1="607.9" x2="1470.2" y2="994.8"/>
		<line class="st4" x1="1435.1" y1="607.9" x2="1435.1" y2="994.8"/>
	</g>
	<path class="st28" d="M991.6,883.2h-5.7c-0.4-2.1-1.2-4.1-2.3-5.9l1.3-1.3l0,0l0,0l0,0l0,0l0,0l0,0l0,0l0,0l0,0l0,0l0,0l0,0l0,0
		l0,0l0,0l0,0l0,0l0,0l0,0l0,0l0,0l0,0l0,0l0,0l0,0l0,0l0,0l0,0l0,0l0,0l0,0l0,0l0,0l0,0l0,0l0,0l0,0l0,0l0,0l0,0l0,0l0,0l0,0l0,0
		l0,0l0,0l0,0l0,0l0,0l0,0l0,0l0,0l0,0l0,0l0,0l0,0l0,0l0,0l0,0l0,0l0,0l0,0l0,0l0,0l0,0l0,0l0,0l0,0l0,0l0,0l0,0l0,0l0,0l0,0l0,0
		l0,0l0,0l0,0l0,0l0,0l0,0l0,0l0,0l0,0l0,0l0,0l0,0l0,0l0,0l0,0l0,0l0,0l0,0l0,0l0,0l0,0l0,0l0,0l0,0l0,0l0,0l0,0l0,0l0,0l0,0l0,0
		l0,0l0,0l0,0l0,0l0,0l0,0l0,0l0,0l0,0l0,0l0,0l0,0l0,0l0,0l0,0l0,0l0,0l0,0l0,0l0,0l0,0l0,0l0,0l0,0l0,0l0,0l0,0l0,0l0,0l0,0l0,0
		l0,0l0,0l0,0l0,0l0,0l0,0l0,0l0,0l0,0l0,0l0,0l0,0l0,0l0,0l0,0l0,0l0,0l0,0l0,0l0,0l0,0l0,0l0,0l0,0l0,0l0,0l0,0l0,0l0,0l0,0l0,0
		l0,0l0,0l0,0l0,0l0,0l0,0l0,0l0,0l0,0l0,0l0,0l0,0l0,0l0,0l0,0l0,0l0,0l0,0l0,0l0,0l0,0l0,0l0,0l0,0l0,0l0,0l0,0l0,0l0,0l0,0l0,0
		l0,0l-6.5-6.5l-4,4c-1.9-1.3-4.1-2.2-6.4-2.7V862h-9.2v0h0v0h0v0h0v0h0v0h0v0h0v0h0v0h0v0h0v0h0v0h0v0h0v0h0v0h0v0h0v0h0v0h0v0h0v0
		h0v0h0v0h0v0h0v0h0v0h0v0h0v0h0v0h0v0h0v0h0v0h0v0h0v0h0v0h0v0h0v0h0v0h0v0h0v0h0v0h0v0h0v0h0v0h0v0h0v0h0v0h0v0h0v0h0v0h0v0h0v0h0
		v0h0v0h0v0h0v0h0v0h0v0h0v0h0v0h0v0h0v0h0v0h0v0h0v0h0v0h0v0h0v0h0v0h0v0h0v0h0v0h0v0h0v0h0v0h0v0h0v0h0v0h0v0h0v0h0v0h0v0h0v0h0v0
		h0v0h0v0h0v0h0v0h0v0h0v0h0v0h0v0h0v0h0v0h0v0h0v0h0v0h0v0h0v0h0v0h0v0h0v0h0v3.3c-1.2,0.5-2.3,1-3.4,1.7l-4-4l-6.5,6.5l0,0l0,0
		l0,0l0,0l0,0l0,0l0,0l0,0l0,0l0,0l0,0l0,0l0,0l0,0l0,0l0,0l0,0l0,0l0,0l0,0l0,0l0,0l0,0l0,0l0,0l0,0l0,0l0,0l0,0l0,0l0,0l0,0l0,0
		l0,0l0,0l0,0l0,0l0,0l0,0l0,0l0,0l0,0l0,0l0,0l0,0l0,0l0,0l0,0l0,0l0,0l0,0l0,0l0,0l0,0l0,0l0,0l0,0l0,0l0,0l0,0l0,0l0,0l0,0l0,0
		l0,0l0,0l0,0l0,0l0,0l0,0l0,0l0,0l0,0l0,0l0,0l0,0l0,0l0,0l0,0l0,0l0,0l0,0l0,0l0,0l0,0l0,0l0,0l0,0l0,0l0,0l0,0l0,0l0,0l0,0l0,0
		l0,0l0,0l0,0l0,0l0,0l0,0l0,0l0,0l0,0l0,0l0,0l0,0l0,0l0,0l0,0l0,0l0,0l0,0l0,0l0,0l0,0l0,0l0,0l0,0l0,0l0,0l0,0l0,0l0,0l0,0l0,0
		l0,0l0,0l0,0l0,0l0,0l0,0l0,0l0,0l0,0l0,0l0,0l0,0l0,0l0,0l0,0l0,0l0,0l0,0l0,0l0,0l0,0l0,0l0,0l0,0l0,0l0,0l0,0l0,0l0,0l0,0l0,0
		l0,0l0,0l0,0l0,0l0,0l0,0l0,0l0,0l0,0l0,0l0,0l0,0l0,0l0,0l0,0l0,0l0,0l0,0l0,0l0,0l0,0l0,0l0,0l0,0l0,0l0,0l0,0l0,0l0,0l0,0l0,0
		l0,0l0,0l0,0l0,0l0,0l0,0l0,0l0,0l0,0l0,0l0,0l0,0l4,4c-0.6,1-1.1,2-1.6,3.1h-4.3v0h0v0h0v0h0v0h0v0h0v0h0v0h0v0h0v0h0v0h0v0h0v0h0
		v0h0v0h0v0h0v0h0v0h0v0h0v0h0v0h0v0h0v0h0v0h0v0h0v0h0v0h0v0h0v0h0v0h0v0h0v0h0v0h0v0h0v0h0v0h0v0h0v0h0v0h0v0h0v0h0v0h0v0h0v0h0v0
		h0v0h0v0h0v0h0v0h0v0h0v0h0v0h0v0h0v0h0v0h0v0h0v0h0v0h0v0h0v0h0v0h0v0h0v0h0v0h0v0h0v0h0v0h0v0h0v0h0v0h0v0h0v0h0v0h0v0h0v0h0v0h0
		v0h0v0h0v0h0v0h0v0h0v0h0v0h0v0h0v0h0v0h0v0h0v0h0v0h0v0h0v0h0v0h0v0h0v0h0v0h0v0h0v0h0v0h0v0h0v0h0v0h0v9.2h6
		c0.5,2.1,1.3,4,2.4,5.8l-1.3,1.3l0,0l0,0l0,0l0,0l0,0l0,0l0,0l0,0l0,0l0,0l0,0l0,0l0,0l0,0l0,0l0,0l0,0l0,0l0,0l0,0l0,0l0,0l0,0
		l0,0l0,0l0,0l0,0l0,0l0,0l0,0l0,0l0,0l0,0l0,0l0,0l0,0l0,0l0,0l0,0l0,0l0,0l0,0l0,0l0,0l0,0l0,0l0,0l0,0l0,0l0,0l0,0l0,0l0,0l0,0
		l0,0l0,0l0,0l0,0l0,0l0,0l0,0l0,0l0,0l0,0l0,0l0,0l0,0l0,0l0,0l0,0l0,0l0,0l0,0l0,0l0,0l0,0l0,0l0,0l0,0l0,0l0,0l0,0l0,0l0,0l0,0
		l0,0l0,0l0,0l0,0l0,0l0,0l0,0l0,0l0,0l0,0l0,0l0,0l0,0l0,0l0,0l0,0l0,0l0,0l0,0l0,0l0,0l0,0l0,0l0,0l0,0l0,0l0,0l0,0l0,0l0,0l0,0
		l0,0l0,0l0,0l0,0l0,0l0,0l0,0l0,0l0,0l0,0l0,0l0,0l0,0l0,0l0,0l0,0l0,0l0,0l0,0l0,0l0,0l0,0l0,0l0,0l0,0l0,0l0,0l0,0l0,0l0,0l0,0
		l0,0l0,0l0,0l0,0l0,0l0,0l0,0l0,0l0,0l0,0l0,0l0,0l0,0l0,0l0,0l0,0l0,0l0,0l0,0l0,0l0,0l0,0l0,0l0,0l0,0l0,0l0,0l0,0l0,0l0,0l0,0
		l0,0l0,0l0,0l0,0l0,0l0,0l0,0l0,0l0,0l0,0l0,0l0,0l0,0l0,0l0,0l0,0l0,0l0,0l0,0l0,0l0,0l0,0l6.5,6.5l4.3-4.3
		c1.8,1.1,3.7,1.9,5.8,2.4v6.2h9.2v0h0v0h0v0h0v0h0v0h0v0h0v0h0v0h0v0h0v0h0v0h0v0h0v0h0v0h0v0h0v0h0v0h0v0h0v0h0v0h0v0h0v0h0v0h0v0
		h0v0h0v0h0v0h0v0h0v0h0v0h0v0h0v0h0v0h0v0h0v0h0v0h0v0h0v0h0v0h0v0h0v0h0v0h0v0h0v0h0v0h0v0h0v0h0v0h0v0h0v0h0v0h0v0h0v0h0v0h0v0h0
		v0h0v0h0v0h0v0h0v0h0v0h0v0h0v0h0v0h0v0h0v0h0v0h0v0h0v0h0v0h0v0h0v0h0v0h0v0h0v0h0v0h0v0h0v0h0v0h0v0h0v0h0v0h0v0h0v0h0v0h0v0h0v0
		h0v0h0v0h0v0h0v0h0v0h0v0h0v0h0v0h0v0h0v0h0v0h0v0h0v0h0v-3.7c1.2-0.4,2.3-1,3.3-1.6l4.2,4.2l6.5-6.5l0,0l0,0l0,0l0,0l0,0l0,0l0,0
		l0,0l0,0l0,0l0,0l0,0l0,0l0,0l0,0l0,0l0,0l0,0l0,0l0,0l0,0l0,0l0,0l0,0l0,0l0,0l0,0l0,0l0,0l0,0l0,0l0,0l0,0l0,0l0,0l0,0l0,0l0,0
		l0,0l0,0l0,0l0,0l0,0l0,0l0,0l0,0l0,0l0,0l0,0l0,0l0,0l0,0l0,0l0,0l0,0l0,0l0,0l0,0l0,0l0,0l0,0l0,0l0,0l0,0l0,0l0,0l0,0l0,0l0,0
		l0,0l0,0l0,0l0,0l0,0l0,0l0,0l0,0l0,0l0,0l0,0l0,0l0,0l0,0l0,0l0,0l0,0l0,0l0,0l0,0l0,0l0,0l0,0l0,0l0,0l0,0l0,0l0,0l0,0l0,0l0,0
		l0,0l0,0l0,0l0,0l0,0l0,0l0,0l0,0l0,0l0,0l0,0l0,0l0,0l0,0l0,0l0,0l0,0l0,0l0,0l0,0l0,0l0,0l0,0l0,0l0,0l0,0l0,0l0,0l0,0l0,0l0,0
		l0,0l0,0l0,0l0,0l0,0l0,0l0,0l0,0l0,0l0,0l0,0l0,0l0,0l0,0l0,0l0,0l0,0l0,0l0,0l0,0l0,0l0,0l0,0l0,0l0,0l0,0l0,0l0,0l0,0l0,0l0,0
		l0,0l0,0l0,0l0,0l0,0l0,0l0,0l0,0l0,0l0,0l0,0l0,0l0,0l0,0l0,0l0,0l0,0l0,0l0,0l0,0l0,0l0,0l0,0l0,0l0,0l0,0l0,0l0,0l0,0l0,0l0,0
		l0,0l0,0l0,0l0,0l0,0l0,0l0,0l-4-4c0.6-0.9,1.1-1.9,1.5-2.9h4.3v0h0v0h0v0h0v0h0v0h0v0h0v0h0v0h0v0h0v0h0v0h0v0h0v0h0v0h0v0h0v0h0
		v0h0v0h0v0h0v0h0v0h0v0h0v0h0v0h0v0h0v0h0v0h0v0h0v0h0v0h0v0h0v0h0v0h0v0h0v0h0v0h0v0h0v0h0v0h0v0h0v0h0v0h0v0h0v0h0v0h0v0h0v0h0v0
		h0v0h0v0h0v0h0v0h0v0h0v0h0v0h0v0h0v0h0v0h0v0h0v0h0v0h0v0h0v0h0v0h0v0h0v0h0v0h0v0h0v0h0v0h0v0h0v0h0v0h0v0h0v0h0v0h0v0h0v0h0v0h0
		v0h0v0h0v0h0v0h0v0h0v0h0v0h0v0h0v0h0v0h0v0h0v0h0v0h0v0h0v0h0v0h0v0h0v0h0v0h0v0h0v0h0V883.2z M965.9,894.1c-3.7,0-6.7-3-6.7-6.7
		c0-0.9,0.2-1.7,0.5-2.4c1-0.6,2.2-1,3.5-1c3.7,0,6.7,3,6.7,6.7c0,0.9-0.2,1.7-0.5,2.4C968.4,893.8,967.2,894.1,965.9,894.1z"/>
	<g>
		<g>
			<path class="st29" d="M966,894.1c-3.7,0-6.7-3-6.7-6.7c0-3.7,3-6.7,6.7-6.7c3.7,0,6.7,3,6.7,6.7
				C972.6,891.1,969.6,894.1,966,894.1z M991.6,892.4v-9.2h-5.7c-0.5-2.2-1.3-4.3-2.5-6.2l4.2-4.2l-6.5-6.5l-4,4
				c-1.9-1.3-4.1-2.2-6.4-2.7V862h-9.2v5.7c-2.2,0.5-4.3,1.4-6.1,2.5l-4-4l-6.5,6.5l4,4c-1.2,1.9-2.1,4-2.6,6.3h-6v9.2h6
				c0.5,2.2,1.4,4.3,2.6,6.1l-4.2,4.2l6.5,6.5l4.3-4.3c1.8,1.1,3.7,1.9,5.8,2.4v6.2h9.2v-6.1c2.2-0.5,4.2-1.3,6-2.4l4.2,4.2l6.5-6.5
				l-4-4c1.2-1.8,2.1-3.9,2.6-6.1H991.6z"/>
		</g>
	</g>
	<g>
		<path class="st6" d="M1730.5,418.2L1730.5,418.2L1730.5,418.2L1730.5,418.2l0.1,0.1h0v0.1h0v0.1h0v0.1h0v0.1h0v0.1h0v0.1h0v0.1h0
			v0.1h0v0.1h0v0.1h0v0.1h0v0.1h0v0.1h0v0.1h0v0.1h0v0.1h0v0.1h0v0.1h0v0.1h0v0.1h0v0.1h0v0.1h0v0.1h0v0.1h0v0.1h0v0.1h0v0.1h0v0.1
			h0v0.1h0v0.1h0v0.1h0v0.1h0v0.1h0v0.1h0v0.1h0v0.1h0v0.1h0v0.1h0v0.1h0v0.1h0v0.1h0v0.1h0v0.1h0v0.1h0v0.1h0v0.1h0v0.1h0v0.1h0
			v0.1h0v0.1h0v0.1h0v0.1h0v0.1h0v0.1h0v0.1h0v0.1h0v0.1h0v0.1h0v0.1h0v0.1h0v0.1h0v0.1h0v0.1h0v0.1h0v0.1h0v0.1h0v0.1h0v0.1h0v0.1
			h0v0.1h0v0.1h0v0.1h0v0.1h0v0.1h0v0.1h0v0.1h0v0.1h0v0.1h0v0.1h0v0.1h0v0.1h0v0.1h0v0.1h0v0.1h0v0.1h0v0.1h0v0.1h0v0.1h0v0.1h0
			v0.1h0v0.1h0v0.1h0v0.1h0v0.1h0v0.1h0v0.1h0v0.1h0v0.1h7c0.7,1.6,1.6,3.2,2.5,4.7l-6.6,6.6l0,0l0,0l0,0l0,0l0,0l0,0l0,0l0,0l0,0
			l0,0l0,0l0,0l0,0l0,0l0,0l0,0l0,0l0,0l0,0l0,0l0,0l0,0l0,0l0,0l0,0l0,0l0,0l0,0l0,0l0,0l0,0l0,0l0,0l0,0l0,0l0,0l0,0l0,0l0,0l0,0
			l0,0l0,0l0,0l0,0l0,0l0,0l0,0l0,0l0,0l0,0l0,0l0,0l0,0l0,0l0,0l0,0l0,0l0,0l0,0l0,0l0,0l0,0l0,0l0,0l0,0l0,0l0,0l0,0l0,0l0,0l0,0
			l0,0l0,0l0,0l0,0l0,0l0,0l0,0l0,0l0,0l0,0l0,0l0,0l0,0l0,0l0,0l0,0l0,0l0,0l0,0l0,0l0,0l0,0l0,0l0,0l0,0l0,0l0,0l0,0l0,0l0,0l0,0
			l0,0l0,0l0,0l0,0l0,0l0,0l0,0l0,0l0,0l0,0l0,0l0,0l0,0l0,0l0,0l0,0l0,0l0,0l0,0l0,0l0,0l0,0l0,0l0,0l0,0l0,0l0,0l0,0l0,0l0,0l0,0
			l0,0l0,0l0,0l0,0l0,0l0,0l0,0l0,0l0,0l0,0l0,0l0,0l0,0l0,0l0,0l0,0l0,0l0,0l0,0l0,0l0,0l0,0l0,0l0,0l0,0l0,0l0,0l0,0l0,0l0,0l0,0
			l0,0l0,0l0,0l0,0l0,0l0,0l0,0l0,0l0,0l0,0l0,0l0,0l0,0l0,0l0,0l0,0l0,0l0,0l0,0l0,0l0,0l0,0l0,0l0,0l0,0l0,0l0,0l0,0l0,0l0,0l0,0
			l0,0l0,0l0,0l0,0l0,0l10.7,10.7l6.8-6.8c1.7,1,3.5,1.9,5.4,2.6v6h0v0.1h0v0.1h0v0.1h0v0.1h0v0.1h0v0.1h0v0.1h0v0.1h0v0.1h0v0.1h0
			v0.1h0v0.1h0v0.1h0v0.1h0v0.1h0v0.1h0v0.1h0v0.1h0v0.1h0v0.1h0v0.1h0v0.1h0v0.1h0v0.1h0v0.1h0v0.1h0v0.1h0v0.1h0v0.1h0v0.1h0v0.1
			h0v0.1h0v0.1h0v0.1h0v0.1h0v0.1h0v0.1h0v0.1h0v0.1h0v0.1h0v0.1h0v0.1h0v0.1h0v0.1h0v0.1h0v0.1h0v0.1h0v0.1h0v0.1h0v0.1h0v0.1h0
			v0.1h0v0.1h0v0.1h0v0.1h0v0.1h0v0.1h0v0.1h0v0.1h0v0.1h0v0.1h0v0.1h0v0.1h0v0.1h0v0.1h0v0.1h0v0.1h0v0.1h0v0.1h0v0.1h0v0.1h0v0.1
			h0v0.1h0v0.1h0v0.1h0v0.1h0v0.1h0v0.1h0v0.1h0v0.1h0v0.1h0v0.1h0v0.1h0v0.1h0v0.1h0v0.1h0v0.1h0v0.1h0v0.1h0v0.1h0v0.1h0v0.1h0
			v0.1h0v0.1h0v0.1h0v0.1h0v0.1h0v0.1h0v0.1h0v0.1h15.1v-10.1c3.4-0.8,6.6-2.2,9.5-4l7,7l10.7-10.7l0,0l0,0l0,0l0,0l0,0l0,0l0,0l0,0
			l0,0l0,0l0,0l0,0l0,0l0,0l0,0l0,0l0,0l0,0l0,0l0,0l0,0l0,0l0,0l0,0l0,0l0,0l0,0l0,0l0,0l0,0l0,0l0,0l0,0l0,0l0,0l0,0l0,0l0,0l0,0
			l0,0l0,0l0,0l0,0l0,0l0,0l0,0l0,0l0,0l0,0l0,0l0,0l0,0l0,0l0,0l0,0l0,0l0,0l0,0l0,0l0,0l0,0l0,0l0,0l0,0l0,0l0,0l0,0l0,0l0,0l0,0
			l0,0l0,0l0,0l0,0l0,0l0,0l0,0l0,0l0,0l0,0l0,0l0,0l0,0l0,0l0,0l0,0l0,0l0,0l0,0l0,0l0,0l0,0l0,0l0,0l0,0l0,0l0,0l0,0l0,0l0,0l0,0
			l0,0l0,0l0,0l0,0l0,0l0,0l0,0l0,0l0,0l0,0l0,0l0,0l0,0l0,0l0,0l0,0l0,0l0,0l0,0l0,0l0,0l0,0l0,0l0,0l0,0l0,0l0,0l0,0l0,0l0,0l0,0
			l0,0l0,0l0,0l0,0l0,0l0,0l0,0l0,0l0,0l0,0l0,0l0,0l0,0l0,0l0,0l0,0l0,0l0,0l0,0l0,0l0,0l0,0l0,0l0,0l0,0l0,0l0,0l0,0l0,0l0,0l0,0
			l0,0l0,0l0,0l0,0l0,0l0,0l0,0l0,0l0,0l0,0l0,0l0,0l0,0l0,0l0,0l0,0l0,0l0,0l0,0l0,0l0,0l0,0l0,0l0,0l0,0l0,0l0,0l0,0l0,0l0,0l0,0
			l0,0l0,0l0,0l0,0l0,0l0,0l-2.2-2.2c1.8-2.9,3.1-6.1,3.9-9.5h9.9v-15.1h0V408h0V408h0v-0.1h0v-0.1h0v-0.1h0v-0.1h0v-0.1h0v-0.1h0
			v-0.1h0v-0.1h0v-0.1h0v-0.1h0v-0.1h0v-0.1h0v-0.1h0v-0.1h0v-0.1h0v-0.1h0v-0.1h0V407h0V407h0v-0.1h0v-0.1h0v-0.1h0v-0.1h0v-0.1h0
			v-0.1h0v-0.1h0v-0.1h0v-0.1h0v-0.1h0v-0.1h0v-0.1h0v-0.1h0v-0.1h0v-0.1h0v-0.1h0v-0.1h0V406h0v-0.1h0v-0.1h0v-0.1h0v-0.1h0v-0.1h0
			v-0.1h0v-0.1h0v-0.1h0v-0.1h0v-0.1h0v-0.1h0v-0.1h0v-0.1h0v-0.1h0v-0.1h0v-0.1h0v-0.1h0V405h0V405h0v-0.1h0v-0.1h0v-0.1h0v-0.1h0
			v-0.1h0v-0.1h0v-0.1h0v-0.1h0v-0.1h0v-0.1h0v-0.1h0v-0.1h0v-0.1h0v-0.1h0v-0.1h0v-0.1h0v-0.1h0V404h0V404h0v-0.1h0v-0.1h0v-0.1h0
			v-0.1h0v-0.1h0v-0.1h0v-0.1h0v-0.1h0v-0.1h0v-0.1h0v-0.1h0v-0.1h0v-0.1h0v-0.1h0v-0.1h0v-0.1h0v-0.1h0V403h0V403h0v-0.1h0v-0.1h0
			v-0.1h0v-0.1h-7c-0.7-1.7-1.6-3.4-2.6-5l6.6-6.6l0,0l0,0l0,0l0,0l0,0l0,0l0,0l0,0l0,0l0,0l0,0l0,0l0,0l0,0l0,0l0,0l0,0l0,0l0,0
			l0,0l0,0l0,0l0,0l0,0l0,0l0,0l0,0l0,0l0,0l0,0l0,0l0,0l0,0l0,0l0,0l0,0l0,0l0,0l0,0l0,0l0,0l0,0l0,0l0,0l0,0l0,0l0,0l0,0l0,0l0,0
			l0,0l0,0l0,0l0,0l0,0l0,0l0,0l0,0l0,0l0,0l0,0l0,0l0,0l0,0l0,0l0,0l0,0l0,0l0,0l0,0l0,0l0,0l0,0l0,0l0,0l0,0l0,0l0,0l0,0l0,0l0,0
			l0,0l0,0l0,0l0,0l0,0l0,0l0,0l0,0l0,0l0,0l0,0l0,0l0,0l0,0l0,0l0,0l0,0l0,0l0,0l0,0l0,0l0,0l0,0l0,0l0,0l0,0l0,0l0,0l0,0l0,0l0,0
			l0,0l0,0l0,0l0,0l0,0l0,0l0,0l0,0l0,0l0,0l0,0l0,0l0,0l0,0l0,0l0,0l0,0l0,0l0,0l0,0l0,0l0,0l0,0l0,0l0,0l0,0l0,0l0,0l0,0l0,0l0,0
			l0,0l0,0l0,0l0,0l0,0l0,0l0,0l0,0l0,0l0,0l0,0l0,0l0,0l0,0l0,0l0,0l0,0l0,0l0,0l0,0l0,0l0,0l0,0l0,0l0,0l0,0l0,0l0,0l0,0l0,0l0,0
			l0,0l0,0l0,0l0,0l0,0l0,0l0,0l0,0l0,0l0,0l0,0l0,0l0,0l0,0l0,0l0,0l0,0l0,0l0,0l0,0l0,0l0,0l0,0l0,0l0,0l0,0l-10.7-10.7l-6.6,6.6
			c-1.8-1.1-3.6-2-5.6-2.8v-5.4h0v-0.1h0v-0.1h0v-0.1h0v-0.1h0v-0.1h0v-0.1h0v-0.1h0v-0.1h0v-0.1h0v-0.1h0V373h0V373h0v-0.1h0v-0.1
			h0v-0.1h0v-0.1h0v-0.1h0v-0.1h0v-0.1h0v-0.1h0v-0.1h0v-0.1h0v-0.1h0v-0.1h0v-0.1h0v-0.1h0v-0.1h0v-0.1h0v-0.1h0V372h0V372h0v-0.1
			h0v-0.1h0v-0.1h0v-0.1h0v-0.1h0v-0.1h0v-0.1h0v-0.1h0v-0.1h0v-0.1h0v-0.1h0v-0.1h0v-0.1h0v-0.1h0v-0.1h0v-0.1h0v-0.1h0V371h0V371
			h0v-0.1h0v-0.1h0v-0.1h0v-0.1h0v-0.1h0v-0.1h0v-0.1h0v-0.1h0v-0.1h0v-0.1h0v-0.1h0v-0.1h0v-0.1h0v-0.1h0v-0.1h0v-0.1h0v-0.1h0V370
			h0V370h0v-0.1h0v-0.1h0v-0.1h0v-0.1h0v-0.1h0v-0.1h0v-0.1h0v-0.1h0v-0.1h0v-0.1h0v-0.1h0v-0.1h0v-0.1h0v-0.1h0v-0.1h0v-0.1h0v-0.1
			h0V369h0V369h0v-0.1h0v-0.1h0v-0.1h0v-0.1h0v-0.1h0v-0.1h0v-0.1h0v-0.1h0v-0.1h0v-0.1h0v-0.1h0v-0.1H1765v9.3
			c-3.8,0.9-7.4,2.4-10.6,4.5l-6.6-6.6l-10.7,10.7l0,0l0,0l0,0l0,0l0,0l0,0l0,0l0,0l0,0l0,0l0,0l0,0l0,0l0,0l0,0l0,0l0,0l0,0l0,0
			l0,0l0,0l0,0l0,0l0,0l0,0l0,0l0,0l0,0l0,0l0,0l0,0l0,0l0,0l0,0l0,0l0,0l0,0l0,0l0,0l0,0l0,0l0,0l0,0l0,0l0,0l0,0l0,0l0,0l0,0l0,0
			l0,0l0,0l0,0l0,0l0,0l0,0l0,0l0,0l0,0l0,0l0,0l0,0l0,0l0,0l0,0l0,0l0,0l0,0l0,0l0,0l0,0l0,0l0,0l0,0l0,0l0,0l0,0l0,0l0,0l0,0l0,0
			l0,0l0,0l0,0l0,0l0,0l0,0l0,0l0,0l0,0l0,0l0,0l0,0l0,0l0,0l0,0l0,0l0,0l0,0l0,0l0,0l0,0l0,0l0,0l0,0l0,0l0,0l0,0l0,0l0,0l0,0l0,0
			l0,0l0,0l0,0l0,0l0,0l0,0l0,0l0,0l0,0l0,0l0,0l0,0l0,0l0,0l0,0l0,0l0,0l0,0l0,0l0,0l0,0l0,0l0,0l0,0l0,0l0,0l0,0l0,0l0,0l0,0l0,0
			l0,0l0,0l0,0l0,0l0,0l0,0l0,0l0,0l0,0l0,0l0,0l0,0l0,0l0,0l0,0l0,0l0,0l0,0l0,0l0,0l0,0l0,0l0,0l0,0l0,0l0,0l0,0l0,0l0,0l0,0l0,0
			l0,0l0,0l0,0l0,0l0,0l0,0l0,0l0,0l0,0l0,0l0,0l0,0l0,0l0,0l0,0l0,0l0,0l0,0l0,0l0,0l0,0l0,0l0,0l0,0l0,0l0,0l2.1,2.1
			c-1.7,3-3,6.2-3.7,9.6h-9.4V418.2z M1766.8,419.4c-0.5-1.2-0.8-2.6-0.8-4c0-6,4.9-10.9,10.9-10.9c2.1,0,4,0.6,5.7,1.6
			c0.5,1.2,0.8,2.6,0.8,4c0,6-4.9,10.9-10.9,10.9C1770.4,421,1768.5,420.4,1766.8,419.4z"/>
		<g>
			<path class="st7" d="M1761.6,410c0-6,4.9-10.9,10.9-10.9c6,0,10.9,4.9,10.9,10.9c0,6-4.9,10.9-10.9,10.9
				C1766.5,421,1761.6,416.1,1761.6,410z M1740.1,418.2c0.9,3.6,2.4,7,4.3,10l-6.6,6.6l10.7,10.7l6.8-6.8c3,1.8,6.4,3.2,9.9,4v10
				h15.1v-10.1c3.4-0.8,6.6-2.2,9.5-4l7,7l10.7-10.7l-6.9-6.9c1.9-3,3.4-6.4,4.2-10h9.9v-15.1h-9.8c-0.8-3.7-2.3-7.2-4.2-10.3
				l6.6-6.6l-10.7-10.7l-6.6,6.6c-3.1-1.9-6.4-3.3-10.1-4.2v-9.3h-15.1v9.3c-3.8,0.9-7.4,2.4-10.6,4.5l-6.6-6.6l-10.7,10.7l6.8,6.8
				c-1.9,3.1-3.2,6.5-4,10.1h-9.4v15.1H1740.1z"/>
		</g>
	</g>
	<polygon class="st29" points="1362.2,862.7 1350.5,927.4 1436.9,917.6 	"/>
	<polygon class="st28" points="1362.2,862.7 1383.9,901.2 1350.5,927.4 	"/>
	<polygon class="st30" points="1350.5,927.4 1383.9,901.2 1436.9,917.6 	"/>
	<g>
		<g>
			<g>
				<line class="st10" x1="819.5" y1="610" x2="825.2" y2="558.9"/>
			</g>
			<g>
				<line class="st10" x1="788.3" y1="594.6" x2="825.5" y2="559.1"/>
			</g>
			<g>
				<line class="st10" x1="774.3" y1="562.7" x2="825.7" y2="559.4"/>
			</g>
			<g>
				<line class="st10" x1="784.1" y1="529.3" x2="825.6" y2="559.7"/>
			</g>
			<g>
				<line class="st10" x1="813.1" y1="510" x2="825.3" y2="559.9"/>
			</g>
			<g>
				<line class="st10" x1="847.7" y1="513.8" x2="824.9" y2="559.9"/>
			</g>
			<g>
				<line class="st10" x1="871.8" y1="539" x2="824.7" y2="559.6"/>
			</g>
			<g>
				<line class="st10" x1="874" y1="573.8" x2="824.6" y2="559.3"/>
			</g>
			<g>
				<line class="st10" x1="853.4" y1="601.8" x2="824.9" y2="559"/>
			</g>
		</g>
	</g>
	<g>
		<path class="st11" d="M1092.4,956h141.4c4,0,7.3-3.3,7.3-7.3v-75.5c0-4-3.3-7.3-7.3-7.3h-56.2l-14.5-14.5l-14.5,14.5h-56.2
			c-4,0-7.3,3.3-7.3,7.3v75.5C1085.1,952.7,1088.4,956,1092.4,956z"/>
	</g>
	<g>
		<g>
			<path class="st11" d="M1639.2,179h-120.9c-3.4,0-6.2,2.8-6.2,6.2v64.5c0,3.4,2.8,6.2,6.2,6.2h48.1l12.4,12.4l12.4-12.4h48.1
				c3.4,0,6.2-2.8,6.2-6.2v-64.5C1645.4,181.8,1642.6,179,1639.2,179z"/>
		</g>
	</g>
	<g>
		<path class="st7" d="M1169.6,244.3c-0.5,1.1-1,2.1-1.5,3.1c-1.5,3.1-2.9,6.3-4.4,9.4c-0.1,0.2-0.2,0.5-0.3,0.7
			c-0.5,0.7-1.4,0.7-1.8-0.1c-0.3-0.6-0.5-1.3-0.7-1.9c-5.5-14.8-11-29.6-16.5-44.4c-0.2-0.6-0.4-1.1,0.1-1.6c0.5-0.5,1-0.3,1.5-0.1
			c14.2,6.1,28.3,12.2,42.5,18.3c0.2,0.1,0.4,0.2,0.6,0.3c0.7,0.4,0.7,1.4,0.1,1.8c-0.2,0.2-0.5,0.3-0.7,0.4
			c-3.6,2-7.3,3.9-10.9,5.9c-0.2,0.1-0.4,0.2-0.6,0.3c0.2,0.2,0.3,0.4,0.5,0.6c2.9,3.1,5.8,6.2,8.7,9.3c0.2,0.2,0.3,0.3,0.5,0.5
			c0.3,0.4,0.3,0.9,0,1.4c0,0,0,0,0,0.1c-1.9,2.1-3.9,4.2-5.8,6.2c-0.4,0.5-1,0.4-1.4,0c-0.1-0.1-0.3-0.3-0.4-0.4
			c-1.1-1.2-2.2-2.4-3.4-3.6c-1.8-1.9-3.5-3.8-5.3-5.7C1170,244.7,1169.8,244.6,1169.6,244.3z"/>
	</g>
	<g>
		<path class="st7" d="M1138.9,906.8c0-1.5-0.1-3-0.6-4.4c-0.4-1.4-1.1-2.6-2.2-3.5c-1-0.9-2.5-1.4-4.4-1.4c-2.7,0-4.8,1.2-6,3.7
			c-1.3,2.5-1.9,6.1-1.9,10.8c0,4.4,0.8,7.8,2.3,10.1c1.5,2.3,3.7,3.4,6.4,3.4c1.9,0,3.7-0.4,5.3-1.2c1.6-0.8,3.2-1.8,4.7-3
			c0.8,0.5,1.5,1.3,2.3,2.2c0.7,0.9,1.2,1.9,1.4,2.8c-1.1,1.1-2.4,2.1-4,3s-3.3,1.6-5.2,2.2c-1.9,0.5-3.8,0.8-5.9,0.8
			c-2.9,0-5.3-0.6-7.3-1.7c-2-1.2-3.6-2.7-4.7-4.7c-1.2-1.9-2-4.1-2.6-6.5c-0.5-2.4-0.8-4.9-0.8-7.3c0-4.8,0.7-8.7,2.2-11.8
			c1.5-3,3.5-5.3,5.9-6.7c2.5-1.4,5.2-2.2,8.1-2.2c2.9,0,5.4,0.5,7.6,1.6c2.1,1.1,3.8,2.5,5,4.2c1.2,1.8,1.8,3.7,1.8,5.8
			c0,1.4-0.4,2.5-1.1,3.2c-0.7,0.7-1.8,1.1-3.3,1.1c-0.6,0-1.1,0-1.5-0.1C1140,907,1139.5,906.9,1138.9,906.8z"/>
		<path class="st7" d="M1149.8,927.9c0.1-1.1,0.4-2.2,1-3.3c0.6-1.1,1.3-1.9,2-2.6c1.6,1,3.5,1.9,5.5,2.7c2,0.8,4.1,1.1,6.1,1.1
			c2,0,3.5-0.5,4.5-1.4c1-0.9,1.5-2,1.5-3.2c0-1-0.3-1.9-1-2.8c-0.6-0.9-1.8-1.7-3.4-2.4l-6.9-2.9c-2.4-1-4.3-2.3-5.8-4
			c-1.5-1.6-2.2-3.7-2.2-6.4c0-2.2,0.6-4.2,1.8-6c1.2-1.7,2.8-3.1,4.8-4.1c2-1,4.4-1.5,6.9-1.5c2.6,0,5,0.3,7.2,1
			c2.3,0.7,4.1,1.4,5.6,2.1c-0.1,1.1-0.3,2.2-0.8,3.2c-0.5,1.1-1.1,1.9-1.9,2.6c-1.5-0.7-3.2-1.3-5-1.9c-1.9-0.6-3.6-0.8-5.1-0.8
			c-1.9,0-3.3,0.4-4.2,1.3c-0.9,0.9-1.4,1.9-1.4,3c0,1,0.3,1.8,1,2.5c0.7,0.7,1.7,1.3,3,1.9l7,2.9c1.7,0.7,3.3,1.6,4.6,2.7
			c1.3,1.1,2.3,2.3,3,3.7c0.7,1.4,1.1,2.9,1.1,4.6c0,2.3-0.5,4.3-1.6,6.1c-1.1,1.8-2.7,3.2-4.9,4.3c-2.2,1-4.9,1.6-8.1,1.6
			c-2.4,0-4.8-0.4-7.3-1.1C1154.1,930.4,1151.8,929.3,1149.8,927.9z"/>
		<path class="st7" d="M1181.7,927.9c0.1-1.1,0.4-2.2,1-3.3c0.6-1.1,1.3-1.9,2-2.6c1.6,1,3.5,1.9,5.5,2.7c2,0.8,4.1,1.1,6.1,1.1
			c2,0,3.5-0.5,4.5-1.4c1-0.9,1.5-2,1.5-3.2c0-1-0.3-1.9-1-2.8c-0.6-0.9-1.8-1.7-3.4-2.4l-6.9-2.9c-2.4-1-4.3-2.3-5.8-4
			c-1.5-1.6-2.2-3.7-2.2-6.4c0-2.2,0.6-4.2,1.8-6c1.2-1.7,2.8-3.1,4.8-4.1c2-1,4.4-1.5,6.9-1.5c2.6,0,5,0.3,7.2,1
			c2.3,0.7,4.1,1.4,5.6,2.1c-0.1,1.1-0.3,2.2-0.8,3.2c-0.5,1.1-1.1,1.9-1.9,2.6c-1.5-0.7-3.2-1.3-5-1.9s-3.6-0.8-5.1-0.8
			c-1.9,0-3.3,0.4-4.2,1.3c-0.9,0.9-1.4,1.9-1.4,3c0,1,0.3,1.8,1,2.5c0.7,0.7,1.7,1.3,3,1.9l7,2.9c1.7,0.7,3.3,1.6,4.6,2.7
			c1.3,1.1,2.3,2.3,3,3.7c0.7,1.4,1.1,2.9,1.1,4.6c0,2.3-0.5,4.3-1.6,6.1c-1.1,1.8-2.7,3.2-4.9,4.3c-2.2,1-4.9,1.6-8.1,1.6
			c-2.4,0-4.8-0.4-7.3-1.1C1186.1,930.4,1183.8,929.3,1181.7,927.9z"/>
	</g>
	<g>
		<path class="st7" d="M1530.3,226.4c0.7,0.4,1.4,0.8,2.2,1c0.8,0.3,1.6,0.4,2.4,0.4c1.8,0,3-0.5,3.7-1.6c0.6-1.1,0.9-2.7,0.9-4.9
			v-20.8c0.5-0.1,1-0.2,1.6-0.2c0.6,0,1.1,0,1.5,0c0.4,0,0.9,0,1.5,0c0.6,0,1.1,0.1,1.6,0.2v20c0,1.8-0.1,3.4-0.4,4.9
			s-0.8,2.8-1.5,4c-0.7,1.1-1.8,2-3.1,2.6c-1.3,0.6-3.1,0.9-5.2,0.9c-1.2,0-2.5-0.2-3.9-0.5c-1.4-0.3-2.6-0.8-3.6-1.5
			c0.1-0.8,0.4-1.6,0.8-2.5C1529.3,227.8,1529.7,227,1530.3,226.4z"/>
		<path class="st7" d="M1559.5,200.6c0.5-0.1,1.1-0.1,1.8-0.2c0.7,0,1.3-0.1,1.8-0.1c0.5,0,1.1,0,1.8,0.1c0.7,0,1.3,0.1,1.8,0.2
			l10.3,31.6c-0.4,0.3-1,0.4-1.7,0.6c-0.7,0.1-1.3,0.2-1.9,0.2c-1,0-1.8-0.2-2.3-0.7c-0.6-0.5-1-1.4-1.4-2.7l-4.2-14
			c-0.4-1.3-0.8-2.8-1.3-4.5c-0.5-1.7-0.9-3.2-1.2-4.6h-0.3c-0.2,0.8-0.4,1.6-0.6,2.6c-0.2,0.9-0.5,1.9-0.8,2.8
			c-0.3,0.9-0.5,1.8-0.7,2.5l-5.6,18.3c-0.4,0.1-0.8,0.2-1.3,0.2c-0.5,0-0.9,0-1.4,0c-0.5,0-1,0-1.6-0.1c-0.6-0.1-1.1-0.2-1.4-0.3
			l-0.2-0.3L1559.5,200.6z M1559.5,225.4c-0.2,0-0.5,0-0.8,0c-0.4,0-0.7,0-1.1,0c-0.4,0-0.6,0-0.8,0h-3.2l1.9-5h2.8
			c0.2,0,0.4,0,0.8,0s0.7,0,1,0s0.6,0,0.8,0h4c0.2,0,0.5,0,0.8,0s0.7,0,1,0s0.6,0,0.8,0h2.9l1.6,5h-3.2c-0.2,0-0.5,0-0.8,0
			c-0.4,0-0.7,0-1.1,0c-0.4,0-0.6,0-0.8,0H1559.5z"/>
		<path class="st7" d="M1596.6,200.6c0.4-0.1,0.9-0.2,1.4-0.2c0.5,0,0.9,0,1.3,0c0.4,0,0.9,0,1.4,0.1c0.6,0.1,1,0.2,1.4,0.3l0.3,0.4
			l-9,31.5c-0.7,0.1-1.5,0.1-2.4,0.2c-0.9,0-1.7,0.1-2.5,0.1c-1.2,0-2.1-0.2-2.8-0.6c-0.7-0.4-1.2-1.2-1.5-2.3l-8.2-28.8
			c0.6-0.3,1.2-0.5,1.9-0.7c0.6-0.2,1.3-0.3,2-0.3c0.9,0,1.6,0.2,2.2,0.7c0.5,0.5,0.9,1.3,1.2,2.4l4.2,15.1c0.2,0.8,0.5,1.7,0.7,2.7
			c0.2,1,0.4,1.9,0.7,2.9c0.2,1,0.4,1.9,0.6,2.7c0.1,0.4,0.2,0.5,0.5,0.5L1596.6,200.6z"/>
		<path class="st7" d="M1611.9,200.6c0.5-0.1,1.1-0.1,1.8-0.2c0.7,0,1.3-0.1,1.8-0.1c0.5,0,1.1,0,1.8,0.1c0.7,0,1.3,0.1,1.8,0.2
			l10.3,31.6c-0.4,0.3-1,0.4-1.7,0.6c-0.7,0.1-1.3,0.2-1.9,0.2c-1,0-1.8-0.2-2.3-0.7c-0.6-0.5-1-1.4-1.4-2.7l-4.2-14
			c-0.4-1.3-0.8-2.8-1.3-4.5c-0.5-1.7-0.9-3.2-1.2-4.6h-0.3c-0.2,0.8-0.4,1.6-0.6,2.6c-0.2,0.9-0.5,1.9-0.8,2.8
			c-0.3,0.9-0.5,1.8-0.7,2.5l-5.6,18.3c-0.4,0.1-0.8,0.2-1.3,0.2c-0.5,0-0.9,0-1.4,0c-0.5,0-1,0-1.6-0.1c-0.6-0.1-1.1-0.2-1.4-0.3
			l-0.2-0.3L1611.9,200.6z M1611.8,225.4c-0.2,0-0.5,0-0.8,0c-0.4,0-0.7,0-1.1,0c-0.4,0-0.6,0-0.8,0h-3.2l1.9-5h2.8
			c0.2,0,0.4,0,0.8,0s0.7,0,1,0s0.6,0,0.8,0h4c0.2,0,0.5,0,0.8,0s0.7,0,1,0s0.6,0,0.8,0h2.9l1.6,5h-3.2c-0.2,0-0.5,0-0.8,0
			c-0.4,0-0.7,0-1.1,0c-0.4,0-0.6,0-0.8,0H1611.8z"/>
	</g>
	<g>
		<path class="st15" d="M1634.1,812.9H995.3c-9,0-16.4-7.4-16.4-16.4V378.1c0-9,7.4-16.4,16.4-16.4h638.7c9,0,16.4,7.4,16.4,16.4
			v418.4C1650.5,805.5,1643.1,812.9,1634.1,812.9z"/>
	</g>
	<g>
		<path class="st11" d="M1675.6,776.4H956.9c-9.6,0-17.5-7.9-17.5-17.5V314.2c0-9.6,7.9-17.5,17.5-17.5h718.8
			c9.6,0,17.5,7.9,17.5,17.5v444.8C1693.1,768.5,1685.2,776.4,1675.6,776.4z"/>
		<line class="st16" x1="1607.1" y1="325.6" x2="1624.3" y2="325.6"/>
		<path class="st16" d="M974.3,325.6c0-4-3.2-7.2-7.2-7.2c-4,0-7.2,3.2-7.2,7.2s3.2,7.2,7.2,7.2
			C971.1,332.8,974.3,329.6,974.3,325.6z"/>
		<path class="st16" d="M993.2,325.6c0-4-3.2-7.2-7.2-7.2c-4,0-7.2,3.2-7.2,7.2s3.2,7.2,7.2,7.2C990,332.8,993.2,329.6,993.2,325.6z
			"/>
		<path class="st16" d="M1012.1,325.6c0-4-3.2-7.2-7.2-7.2s-7.2,3.2-7.2,7.2s3.2,7.2,7.2,7.2S1012.1,329.6,1012.1,325.6z"/>
		<g>
			
				<ellipse transform="matrix(0.9732 -0.2298 0.2298 0.9732 -32.5025 372.124)" class="st16" cx="1581.8" cy="325.6" rx="11" ry="11"/>
			<polyline class="st16" points="1587.2,323.8 1581.9,329.7 1581.8,329.6 1576.4,323.7 			"/>
		</g>
		<line class="st16" x1="1615.7" y1="317.1" x2="1615.7" y2="334.2"/>
		<g>
			<rect x="1640.6" y="317.2" class="st16" width="6.3" height="6.3"/>
			<rect x="1652.2" y="317.2" class="st16" width="6.3" height="6.3"/>
			<rect x="1640.6" y="327.8" class="st16" width="6.3" height="6.3"/>
			<rect x="1652.2" y="327.8" class="st16" width="6.3" height="6.3"/>
		</g>
		<polyline class="st17" points="1311.2,333.4 1302.8,325.7 1302.9,325.6 1311.3,317.9 		"/>
		<polyline class="st17" points="1334.8,317.9 1343.2,325.6 1343.1,325.7 1334.7,333.4 		"/>
	</g>
	<g>
		<rect x="1011.7" y="469" class="st18" width="245" height="279.1"/>
		<line class="st18" x1="1011.7" y1="469" x2="1256.8" y2="748.1"/>
		<line class="st18" x1="1011.7" y1="748.1" x2="1256.8" y2="469"/>
	</g>
	<rect x="1286.5" y="514.5" class="st19" width="181.4" height="21"/>
	<line class="st11" x1="1286.5" y1="563.6" x2="1469" y2="563.6"/>
	<line class="st11" x1="1286.5" y1="586.4" x2="1567.5" y2="586.4"/>
	<line class="st11" x1="1286.5" y1="607.9" x2="1567.5" y2="607.9"/>
	<linearGradient id="SVGID_7_" gradientUnits="userSpaceOnUse" x1="1290.1332" y1="683.6188" x2="1389.5168" y2="683.6188">
		<stop  offset="0" style="stop-color:#DDF795"/>
		<stop  offset="1" style="stop-color:#9FCE38"/>
	</linearGradient>
	<rect x="1290.1" y="633.9" class="st31" width="99.4" height="99.4"/>
	<g>
		<rect x="1282.6" y="625.9" width="18.2" height="18.2"/>
		<rect x="1378.9" y="625.9" width="18.2" height="18.2"/>
		<rect x="1282.6" y="723.2" width="18.2" height="18.2"/>
		<rect x="1378.9" y="723.2" width="18.2" height="18.2"/>
	</g>
	<g>
		<g>
			<path class="st20" d="M1339.8,683.9c-14.4,0-26.1,11.7-26.1,26.1h52.2C1365.9,695.6,1354.2,683.9,1339.8,683.9z"/>
			
				<ellipse transform="matrix(0.3827 -0.9239 0.9239 0.3827 209.4601 1650.5292)" class="st20" cx="1339.8" cy="668.5" rx="11.3" ry="11.3"/>
		</g>
	</g>
	<g>
		<path class="st19" d="M1485.4,492.9h-188.1c-7.1,0-12.9-5.8-12.9-12.9l0,0c0-7.1,5.8-12.9,12.9-12.9h188.1
			c7.1,0,12.9,5.8,12.9,12.9l0,0C1498.2,487.1,1492.4,492.9,1485.4,492.9z"/>
		<path class="st21" d="M1488.8,486.3l-2.8-2.8c2.1-2.7,2-6.7-0.5-9.1c-2.7-2.7-7.1-2.7-9.7,0c-1.3,1.3-2,3-2,4.9
			c0,1.8,0.7,3.6,2,4.9c1.3,1.3,3.1,2,4.9,2c1.5,0,3-0.5,4.3-1.5l2.8,2.8L1488.8,486.3z M1476.8,483c-1-1-1.6-2.3-1.6-3.7
			c0-1.4,0.6-2.7,1.6-3.7c1-1,2.4-1.5,3.7-1.5c1.4,0,2.7,0.5,3.7,1.5c2.1,2.1,2.1,5.4,0,7.5C1482.2,485.1,1478.9,485.1,1476.8,483z"
			/>
	</g>
	<g>
		<polygon class="st22" points="1450.9,740.4 1451,740.4 1450.9,740.4 		"/>
		<polygon class="st22" points="1529.5,690.4 1603.6,738.6 1603.6,641.5 1602.8,642 1602.5,642.3 		"/>
		<polygon class="st22" points="1595.8,641 1456.9,641 1526.8,686.5 		"/>
		<polygon class="st22" points="1526.8,694.4 1457,740.4 1597.5,740.4 		"/>
		<polygon class="st22" points="1450.9,642.8 1450.9,738.6 1524.1,690.4 		"/>
		<polygon class="st15" points="1600.9,639.7 1599,641 1601.7,641 		"/>
	</g>
	<linearGradient id="SVGID_8_" gradientUnits="userSpaceOnUse" x1="1548.4219" y1="391.2708" x2="1601.2892" y2="391.2708">
		<stop  offset="0" style="stop-color:#D577B1"/>
		<stop  offset="1" style="stop-color:#B9296C"/>
	</linearGradient>
	<path class="st32" d="M1601.3,419.9l-45.6-57.3c0,0-13.2,0-4.1,21.3l12.2,30L1601.3,419.9z"/>
	<linearGradient id="SVGID_9_" gradientUnits="userSpaceOnUse" x1="1483.7607" y1="423.2072" x2="1619.4268" y2="423.2072">
		<stop  offset="0" style="stop-color:#D577B1"/>
		<stop  offset="1" style="stop-color:#B9296C"/>
	</linearGradient>
	<path class="st33" d="M1547.9,440.3c-2.4-2.3-5.7-3.3-8.9-2.7l-32.9,6.1c-4.6,0.9-9.4,0.2-13.6-1.9c-5.3-2.6-10.8-7.1-7.9-14
		l62.5-24.7c3.6-1.4,7.8-1,11,1.2l43.2,15.6l18.1,22L1547.9,440.3z"/>
	<linearGradient id="SVGID_10_" gradientUnits="userSpaceOnUse" x1="1486.4309" y1="492.699" x2="1708.1785" y2="492.699">
		<stop  offset="0" style="stop-color:#D577B1"/>
		<stop  offset="1" style="stop-color:#B9296C"/>
	</linearGradient>
	<path class="st34" d="M1697.9,478.4l10.3,89.2c0,0-19.1-0.5-43-3.4c-41.6-5-104-17.5-133.8-47.8c-2.2-2.2-5-3.7-8.1-4.6
		c-10.3-2.9-33.6-10.8-28.5-20.4c7.6-14.2,50.5-4.3,50.5-4.3s32.2,10.2,34.1-2.8c1.5-10-19-23.1-28.5-28.6c-2.8-1.6-6.3-1.8-9.3-0.4
		l-30.4,14.1c-4.3,2-9.1,2.5-13.6,1.5c-5.8-1.2-12.2-4.3-11.1-11.6l54.5-39.3c3.2-2.3,7.3-2.9,11-1.6l67.5,23.5l31.1,35.3
		L1697.9,478.4z"/>
	<path class="st23" d="M1508.7,443.4l32.3-23.3c3.2-2.3,7.3-2.9,11-1.6l40.5,14.1"/>
	<line class="st23" x1="1560.4" y1="405.2" x2="1590.9" y2="415.9"/>
	<path class="st23" d="M1527.3,510.4c0,0-0.3-7.2,2.7-11.4"/>
	<linearGradient id="SVGID_11_" gradientUnits="userSpaceOnUse" x1="1486.7384" y1="831.8903" x2="1698.0001" y2="831.8903">
		<stop  offset="0" style="stop-color:#DDF795"/>
		<stop  offset="1" style="stop-color:#9FCE38"/>
	</linearGradient>
	<polygon class="st35" points="1525.9,749.6 1578.5,793.5 1595.8,727.2 1607.9,794.7 1663.8,754.9 1629.6,814.4 1698,819.9 
		1633.6,843.5 1682.5,891.6 1618,868.3 1624.5,936.6 1590,877.3 1551.1,933.8 1562.8,866.2 1496.7,884.5 1549.1,840.2 1486.7,811.7 
		1555.3,811.5 	"/>
	<g>
		<g>
			<g>
				<linearGradient id="SVGID_12_" gradientUnits="userSpaceOnUse" x1="892.0413" y1="704.9073" x2="991.3362" y2="704.9073">
					<stop  offset="0" style="stop-color:#DDF795"/>
					<stop  offset="1" style="stop-color:#9FCE38"/>
				</linearGradient>
				<path class="st36" d="M892,690.1l98.5,9.6c0,0,7.4,16.6-22.6,19.1l-20.7,1"/>
			</g>
			<g>
				<linearGradient id="SVGID_13_" gradientUnits="userSpaceOnUse" x1="884.8574" y1="719.8175" x2="984.1523" y2="719.8175">
					<stop  offset="0" style="stop-color:#DDF795"/>
					<stop  offset="1" style="stop-color:#9FCE38"/>
				</linearGradient>
				<path class="st37" d="M884.9,705l98.5,9.6c0,0,7.4,16.6-22.6,19.1l-20.7,1"/>
			</g>
			<g>
				<linearGradient id="SVGID_14_" gradientUnits="userSpaceOnUse" x1="868.7859" y1="733.5106" x2="968.0809" y2="733.5106">
					<stop  offset="0" style="stop-color:#DDF795"/>
					<stop  offset="1" style="stop-color:#9FCE38"/>
				</linearGradient>
				<path class="st38" d="M868.8,718.8l98.5,9.6c0,0,7.4,16.6-22.6,19.1l-43,0.8"/>
			</g>
		</g>
	</g>
	<path class="st24" d="M925.6,731.6c0,0,26.3,2.3,42.4,0.4"/>
	<path class="st24" d="M927.7,712.5c0,0,38.1,2.1,54.3,1.7"/>
	<g>
		<path class="st20" d="M836.4,679.3c-0.1,6.4,1.3,12.6,3.8,18.1l77.3,0.7l90.1,0.9l33.7-17.7l-33.3-18.4l-90.1-0.9l-77.2-0.7
			C838,666.8,836.5,672.9,836.4,679.3z"/>
		<line class="st25" x1="849.6" y1="697.5" x2="849.9" y2="661.4"/>
	</g>
	<linearGradient id="SVGID_15_" gradientUnits="userSpaceOnUse" x1="795.8436" y1="756.1771" x2="1008.7737" y2="756.1771">
		<stop  offset="0" style="stop-color:#DDF795"/>
		<stop  offset="1" style="stop-color:#9FCE38"/>
	</linearGradient>
	<path class="st39" d="M904.4,713.3c0,0,46.4-45.6,49.9-50.9c1.8-2.6,3.8-2.8,5.4-2.4c1.6,0.5,2.7,1.7,3.4,3.2
		c11.2,24.7-24.1,57.2-24.1,57.2s8.4,30.6-18,60.4l-70.5,90.6l-54.6-54.7l42.8-43.7l15.1-80.4c0.9-4.7,3.4-9,7.2-12l47.5-38.6
		l99-1.4c0,0,9.1,15.7-20.3,21.4l-2.8,0.4l-21.5-0.3"/>
	<g>
		<defs>
			<path id="SVGID_16_" d="M913.5,705.2l31.6-33.4c0,0,12.1-23.4,24.1-11.2l-8.6-14.7l-126.1-3.5l-9.1,68.5L913.5,705.2z"/>
		</defs>
		<clipPath id="SVGID_17_">
			<use xlink:href="#SVGID_16_"  style="overflow:visible;"/>
		</clipPath>
		<g class="st40">
			<path class="st20" d="M836.4,679.3c-0.1,6.4,1.3,12.6,3.8,18.1l77.3,0.7l90.1,0.9l33.7-17.7l-33.3-18.4l-90.1-0.9l-77.2-0.7
				C838,666.8,836.5,672.9,836.4,679.3z"/>
			<line class="st25" x1="859.4" y1="697.5" x2="859.7" y2="661.4"/>
		</g>
	</g>
	<g>
		<path class="st24" d="M911.2,706.6l36.1-38.4c0,0,10-16.4,17.6-1.2"/>
		<path class="st24" d="M954.1,702.9c-2.4,3.6-15.2,17.6-15.2,17.6c0.5,1.7,0.8,7.3,1,11.4c0.1,2.9-0.1,5.9-0.6,8.8l-1.9,10.8"/>
	</g>
	<linearGradient id="SVGID_18_" gradientUnits="userSpaceOnUse" x1="1257.3149" y1="326.633" x2="1441.761" y2="326.633">
		<stop  offset="0" style="stop-color:#DDF795"/>
		<stop  offset="1" style="stop-color:#9FCE38"/>
	</linearGradient>
	<path class="st41" d="M1431.5,401.8h-164c-5.6,0-10.2-4.6-10.2-10.2V261.7c0-5.6,4.6-10.2,10.2-10.2h164c5.6,0,10.2,4.6,10.2,10.2
		v129.8C1441.8,397.2,1437.1,401.8,1431.5,401.8z"/>
	<linearGradient id="SVGID_19_" gradientUnits="userSpaceOnUse" x1="1326.6018" y1="412.7705" x2="1372.4742" y2="412.7705">
		<stop  offset="0" style="stop-color:#DDF795"/>
		<stop  offset="1" style="stop-color:#9FCE38"/>
	</linearGradient>
	<polygon class="st42" points="1326.6,401.3 1349.5,424.2 1372.5,401.3 	"/>
	<g>
		<path d="M1324.1,304.4c1.2,0.7,2.2,1.7,3.1,3.1c0.8,1.4,1.3,2.9,1.5,4.5l-22.4,11.7c-0.9,0.4-2.1,1-3.6,1.7
			c-1.5,0.7-2.6,1.2-3.4,1.6v0.6c0.8,0.3,1.9,0.8,3.4,1.5s2.7,1.2,3.6,1.7l22.4,11.7c-0.2,1.6-0.7,3.1-1.6,4.5
			c-0.9,1.4-1.9,2.5-3,3.2l-34.7-19.1c-0.3-1.2-0.5-2.4-0.5-3.9c0-1.4,0.1-2.7,0.5-3.9L1324.1,304.4z"/>
		<path d="M1360.4,289.8c1.4,0.1,2.9,0.4,4.4,1c1.5,0.5,2.9,1.3,4,2.2l-29.7,78.9c-1.4-0.1-2.9-0.5-4.4-1c-1.5-0.5-2.9-1.3-4.1-2.2
			L1360.4,289.8z"/>
		<path d="M1375.2,350.1c-1.1-0.7-2.1-1.7-3-3.1c-0.9-1.4-1.4-2.9-1.5-4.5l22.4-11.8c0.9-0.5,2.1-1,3.5-1.7c1.5-0.7,2.6-1.2,3.4-1.5
			v-0.6c-0.8-0.3-1.9-0.9-3.4-1.5c-1.5-0.7-2.7-1.2-3.5-1.7l-22.4-11.7c0.2-1.6,0.7-3.2,1.6-4.6c0.9-1.4,1.9-2.5,3-3.2l34.8,19.1
			c0.3,1.1,0.4,2.4,0.5,3.8c0,1.4-0.1,2.7-0.5,3.9L1375.2,350.1z"/>
	</g>
</g>
<g id="PHOTOS">
	<polygon class="st43" points="4844.7,746.5 4603.2,746.5 4603.2,695.9 4631,681.3 4603.2,666 4603.2,471.5 4666.4,337.3 
		4831.4,364 4844.7,471.5 	"/>
	<polygon class="st43" points="1255,746.5 1013.5,746.5 1013.5,695.9 1041.2,681.3 1013.5,666 1013.5,471.5 1076.7,337.3 
		1241.7,364 1255,471.5 	"/>
</g>
<g id="TEXTS">
	<path class="st21" d="M5315.7,117.5l-2.6-2.6c2-2.5,1.8-6.2-0.5-8.6c-2.5-2.5-6.6-2.5-9.1,0c-1.2,1.2-1.9,2.8-1.9,4.6
		c0,1.7,0.7,3.3,1.9,4.6c1.3,1.3,2.9,1.9,4.6,1.9c1.4,0,2.8-0.5,4-1.4l2.6,2.6L5315.7,117.5z M5304.5,114.4
		c-0.9-0.9-1.5-2.2-1.5-3.5c0-1.3,0.5-2.6,1.5-3.5c1-1,2.2-1.4,3.5-1.4c1.3,0,2.5,0.5,3.5,1.4c1.9,1.9,1.9,5.1,0,7
		C5309.5,116.3,5306.4,116.3,5304.5,114.4z"/>
	<g>
		<g>
			<rect x="3774" y="495.2" class="st43" width="558.1" height="92.6"/>
			<text transform="matrix(1 0 0 1 3773.9612 511.2847)"><tspan x="0" y="0" class="st7" style="font-family:'Poppins-Regular'; font-size:19px;">Lorem ipsum dolor sit amet, consectetuer adipiscing elit, </tspan><tspan x="0" y="22.8" class="st7" style="font-family:'Poppins-Regular'; font-size:19px;">sed diam nonummy nibh euismod tincidunt ut laoreet </tspan><tspan x="0" y="45.6" class="st7" style="font-family:'Poppins-Regular'; font-size:19px;">orem ipsum dolor sit amet, consectetuer</tspan></text>
		</g>
		<text transform="matrix(1 0 0 1 3775.3914 772.2324)" class="st7" style="font-family:'Poppins-Bold'; font-size:27.0325px;">SERVICES IM PROVIDING</text>
		<text transform="matrix(1 0 0 1 3771.4929 455.9058)"><tspan x="0" y="0" class="st15" style="font-family:'Righteous-Regular'; font-size:81.6927px;">WEB</tspan><tspan x="168.6" y="0" class="st7" style="font-family:'Righteous-Regular'; font-size:81.6927px;"> DESIGNER</tspan></text>
		
			<text transform="matrix(1 0 0 1 3771.4929 359.1099)" class="st7" style="font-family:'Righteous-Regular'; font-size:81.6927px;">IM N       AH</text>
		<text transform="matrix(1 0 0 1 3775.3914 659.7451)" class="st13" style="font-family:'Poppins-Medium'; font-size:29.6486px;">Get Started</text>
		<text transform="matrix(1 0 0 1 4001.8 854.9453)" class="st3" style="font-family:'Poppins-Medium'; font-size:17.7515px;">UX DESIGN</text>
		<text transform="matrix(1 0 0 1 3816.1995 855.4678)" style="font-family:'Poppins-Medium'; font-size:17.7515px;">UI DESIGN</text>
		<text transform="matrix(1 0 0 1 3775.3901 941.5143)" class="st7" style="font-family:'Poppins-Regular'; font-size:16px;">Your company  2023. All rights reserved</text>
		<text transform="matrix(1 0 0 1 4675.9678 116.43)" class="st7" style="font-family:'Poppins-Medium'; font-size:20px;">About Me</text>
		<text transform="matrix(1 0 0 1 4472.6987 114.4862)" class="st7" style="font-family:'Poppins-Medium'; font-size:20px;">My Projects</text>
		<text transform="matrix(1 0 0 1 4860.3735 116.571)" class="st7" style="font-family:'Poppins-Medium'; font-size:20px;">Contact Me</text>
		<g>
			<g>
				<text transform="matrix(1 0 0 1 4322.0381 116.43)" class="st7" style="font-family:'Poppins-Bold'; font-size:20px;">Home</text>
			</g>
		</g>
		<g>
			<text transform="matrix(1 0 0 1 3841.4307 122.0638)"><tspan x="0" y="0" class="st7" style="font-family:'Poppins-Bold'; font-size:26.3985px;">Your</tspan><tspan x="63.6" y="0" class="st7" style="font-family:'Poppins-Regular'; font-size:26.3985px;">Logo</tspan></text>
		</g>
	</g>
</g>
</svg>
