<?xml version="1.0" encoding="utf-8"?>
<!-- Generator: Adobe Illustrator 24.0.1, SVG Export Plug-In . SVG Version: 6.00 Build 0)  -->
<svg version="1.1" id="Layer_1" xmlns="http://www.w3.org/2000/svg" xmlns:xlink="http://www.w3.org/1999/xlink" x="0px" y="0px"
	 viewBox="0 0 1600 900" style="enable-background:new 0 0 1600 900;" xml:space="preserve">
<style type="text/css">
	.st0{fill:#F7F8F8;}
</style>
<g>
	<g>
		<g>
			<path class="st0" d="M189.6,544.9h-26.7l-21.8-57.8H53.7l-20.6,57.8H6.3l79-206.1h25L189.6,544.9L189.6,544.9z M133.1,465.4
				l-32.3-87.8c-1-2.9-2.1-7.5-3.2-13.8h-0.6c-1,5.8-2.1,10.4-3.3,13.8l-32,87.8H133.1L133.1,465.4z"/>
			<path class="st0" d="M592.6,461.5c0,57.9-26.1,86.8-78.3,86.8s-75-27.8-75-83.5v-126h24.1v124.4c0,42.3,17.8,63.4,53.5,63.4
				c35.6,0,51.6-20.4,51.6-61.2V338.8h24.1L592.6,461.5L592.6,461.5z"/>
			<path class="st0" d="M797.6,544.9h-26.7L749,487.1h-87.4l-20.6,57.8h-26.9l79-206.1h25L797.6,544.9L797.6,544.9z M741.2,465.4
				l-32.3-87.8c-1-2.9-2.1-7.5-3.2-13.8h-0.6c-1,5.8-2.1,10.4-3.3,13.8l-32,87.8H741.2L741.2,465.4z"/>
			<path class="st0" d="M932.6,360.6h-80.5v71.3h74.4v21.7h-74.4v91.3h-24.1V338.8h104.6L932.6,360.6L932.6,360.6z"/>
			<path class="st0" d="M1078.6,544.9H971.6V338.8h24.1V523h82.8L1078.6,544.9L1078.6,544.9z"/>
			<path class="st0" d="M1278.2,544.9h-26.7l-21.8-57.8h-87.4l-20.6,57.8h-26.9l79-206.1h25L1278.2,544.9L1278.2,544.9z
				 M1221.7,465.4l-32.3-87.8c-1-2.9-2.1-7.5-3.2-13.8h-0.6c-1,5.8-2.1,10.4-3.3,13.8l-32.1,87.8H1221.7L1221.7,465.4z"/>
			<path class="st0" d="M1456.2,544.9h-28.7l-34.5-57.8c-3.2-5.4-6.2-9.9-9.2-13.7c-3-3.8-6-6.9-9.1-9.3c-3.1-2.4-6.5-4.1-10.1-5.2
				c-3.6-1.1-7.6-1.7-12.1-1.7h-19.8v87.7h-24.1V338.8h61.5c9,0,17.3,1.1,24.9,3.4c7.6,2.2,14.2,5.7,19.8,10.3
				c5.6,4.6,10,10.3,13.1,17.2c3.2,6.9,4.7,14.9,4.7,24.1c0,7.2-1.1,13.8-3.2,19.8c-2.1,6-5.2,11.3-9.2,16c-4,4.7-8.8,8.7-14.4,12
				c-5.6,3.3-11.9,5.9-18.9,7.7v0.6c3.5,1.5,6.4,3.3,9,5.2c2.5,2,5,4.3,7.3,7c2.3,2.7,4.6,5.7,6.8,9.1c2.2,3.4,4.8,7.4,7.5,11.8
				L1456.2,544.9L1456.2,544.9z M1332.6,360.6v74.7h32.8c6,0,11.6-0.9,16.7-2.7c5.1-1.8,9.6-4.4,13.3-7.8c3.7-3.4,6.7-7.6,8.8-12.5
				c2.1-4.9,3.2-10.5,3.2-16.6c0-11-3.6-19.6-10.7-25.8c-7.1-6.2-17.5-9.3-31-9.3L1332.6,360.6L1332.6,360.6z"/>
			<path class="st0" d="M1593.7,544.9h-109.2V338.8h104.6v21.8h-80.5v68.5h74.4v21.7h-74.4V523h85.1L1593.7,544.9L1593.7,544.9z"/>
		</g>
		<g>
			<path class="st0" d="M189.6,544.9h-26.7l-21.8-57.8H53.7l-20.6,57.8H6.3l79-206.1h25L189.6,544.9L189.6,544.9z M133.1,465.4
				l-32.3-87.8c-1-2.9-2.1-7.5-3.2-13.8h-0.6c-1,5.8-2.1,10.4-3.3,13.8l-32,87.8H133.1L133.1,465.4z"/>
			<path class="st0" d="M592.6,461.5c0,57.9-26.1,86.8-78.3,86.8s-75-27.8-75-83.5v-126h24.1v124.4c0,42.3,17.8,63.4,53.5,63.4
				c35.6,0,51.6-20.4,51.6-61.2V338.8h24.1L592.6,461.5L592.6,461.5z"/>
			<path class="st0" d="M797.6,544.9h-26.7L749,487.1h-87.4l-20.6,57.8h-26.9l79-206.1h25L797.6,544.9L797.6,544.9z M741.2,465.4
				l-32.3-87.8c-1-2.9-2.1-7.5-3.2-13.8h-0.6c-1,5.8-2.1,10.4-3.3,13.8l-32,87.8H741.2L741.2,465.4z"/>
			<path class="st0" d="M932.6,360.6h-80.5v71.3h74.4v21.7h-74.4v91.3h-24.1V338.8h104.6L932.6,360.6L932.6,360.6z"/>
			<path class="st0" d="M1078.6,544.9H971.6V338.8h24.1V523h82.8L1078.6,544.9L1078.6,544.9z"/>
			<path class="st0" d="M1278.2,544.9h-26.7l-21.8-57.8h-87.4l-20.6,57.8h-26.9l79-206.1h25L1278.2,544.9L1278.2,544.9z
				 M1221.7,465.4l-32.3-87.8c-1-2.9-2.1-7.5-3.2-13.8h-0.6c-1,5.8-2.1,10.4-3.3,13.8l-32.1,87.8H1221.7L1221.7,465.4z"/>
			<path class="st0" d="M1456.2,544.9h-28.7l-34.5-57.8c-3.2-5.4-6.2-9.9-9.2-13.7c-3-3.8-6-6.9-9.1-9.3c-3.1-2.4-6.5-4.1-10.1-5.2
				c-3.6-1.1-7.6-1.7-12.1-1.7h-19.8v87.7h-24.1V338.8h61.5c9,0,17.3,1.1,24.9,3.4c7.6,2.2,14.2,5.7,19.8,10.3
				c5.6,4.6,10,10.3,13.1,17.2c3.2,6.9,4.7,14.9,4.7,24.1c0,7.2-1.1,13.8-3.2,19.8c-2.1,6-5.2,11.3-9.2,16c-4,4.7-8.8,8.7-14.4,12
				c-5.6,3.3-11.9,5.9-18.9,7.7v0.6c3.5,1.5,6.4,3.3,9,5.2c2.5,2,5,4.3,7.3,7c2.3,2.7,4.6,5.7,6.8,9.1c2.2,3.4,4.8,7.4,7.5,11.8
				L1456.2,544.9L1456.2,544.9z M1332.6,360.6v74.7h32.8c6,0,11.6-0.9,16.7-2.7c5.1-1.8,9.6-4.4,13.3-7.8c3.7-3.4,6.7-7.6,8.8-12.5
				c2.1-4.9,3.2-10.5,3.2-16.6c0-11-3.6-19.6-10.7-25.8c-7.1-6.2-17.5-9.3-31-9.3L1332.6,360.6L1332.6,360.6z"/>
			<path class="st0" d="M1593.7,544.9h-109.2V338.8h104.6v21.8h-80.5v68.5h74.4v21.7h-74.4V523h85.1L1593.7,544.9L1593.7,544.9z"/>
		</g>
	</g>
	<path class="st0" d="M366.3,515.6c16.8-19.6,25.2-46.2,25.2-79.9c0-31-8.2-56.1-24.6-75.3c-16.4-19.2-38-28.8-64.7-28.8
		c-29,0-52,9.9-68.9,29.6c-16.9,19.7-25.3,46.2-25.3,79.4c0,30.9,8.3,56,24.8,75.3c16.7,19.3,38.8,28.9,66.2,28.9
		c11.4,0,21.8-1.6,31.4-4.7l36.5,28.1l19.5-15l-32.6-25.6C358.1,524.3,362.3,520.3,366.3,515.6L366.3,515.6z M330,442
		c-11.1-0.2-21,6.7-30.8,12.3c-9.7,5.6-20,10.3-30.9,11.9c-16.1,2.5-34-2.1-42.5-17c-5.8-10.2-6-22.8-4-34.4c5.1-29,24-55.7,51.6-67
		c8.6-3.5,17.7-5.5,27-5.7c2,0,3.9,0,5.9,0.1c27.4,1.9,50.4,19.6,62.4,43.8c6.6,13.3,11.2,29.8,10.7,44.7
		c-0.2,6.1-1.8,12.6-7.5,15.7c-5.1,2.8-11.6,2.5-17.1,1.3C346.5,446.2,338.6,442.2,330,442L330,442z"/>
</g>
</svg>
