<?xml version="1.0" encoding="utf-8"?>
<!-- Generator: Adobe Illustrator 24.0.1, SVG Export Plug-In . SVG Version: 6.00 Build 0)  -->
<svg version="1.1" id="Layer_1" xmlns="http://www.w3.org/2000/svg" xmlns:xlink="http://www.w3.org/1999/xlink" x="0px" y="0px"
	 viewBox="0 0 1600 900" style="enable-background:new 0 0 1600 900;" xml:space="preserve">
<style type="text/css">
	.st0{fill:#F7F8F8;}
</style>
<g>
	<g>
		<path class="st0" d="M703.8,555.3c-13.7,0-26.6-2.7-38.7-8.2c-12.1-5.5-22.7-13-31.9-22.7s-16.4-20.9-21.6-33.6
			c-5.2-12.7-7.8-26.3-7.8-40.8s2.6-28.1,7.8-40.8s12.4-23.9,21.6-33.6c9.2-9.7,19.8-17.2,31.9-22.7c12.1-5.5,25-8.2,38.7-8.2
			c13.8,0,26.8,2.7,38.9,8.2c12.1,5.5,22.7,13,31.9,22.7s16.4,20.9,21.5,33.6c5.2,12.7,7.8,26.3,7.8,40.8s-2.6,28.1-7.8,40.8
			c-5.2,12.7-12.4,23.9-21.5,33.6c-9.2,9.7-19.8,17.2-31.9,22.7C730.5,552.6,717.6,555.3,703.8,555.3z M703.8,511.8
			c7.7,0,15-1.6,21.8-4.9c6.8-3.2,12.8-7.7,18.1-13.3c5.2-5.7,9.3-12.2,12.3-19.7c2.9-7.4,4.4-15.4,4.4-23.9s-1.5-16.5-4.4-23.9
			c-3-7.4-7-14-12.3-19.7c-5.2-5.7-11.2-10.1-18.1-13.3c-6.8-3.2-14.1-4.9-21.8-4.9s-15,1.6-21.8,4.9c-6.8,3.2-12.8,7.7-18.1,13.3
			c-5.2,5.7-9.3,12.2-12.3,19.7c-3,7.4-4.4,15.4-4.4,23.9s1.5,16.5,4.4,23.9c2.9,7.4,7,14,12.3,19.7c5.2,5.7,11.2,10.1,18.1,13.3
			C688.7,510.2,696,511.8,703.8,511.8z"/>
		<path class="st0" d="M883.3,348.5h49l73.7,203.1h-46.1l-11.6-31.9h-81l-11.6,31.9h-46.1L883.3,348.5z M883.3,476.1h49l-24.7-67.3
			L883.3,476.1z"/>
		<path class="st0" d="M1187.4,551.6h-56.9l-51.9-73.4l-5.8,7v66.4h-43.5V348.5h43.5v69.1l57.7-69.1h56.9l-80.4,95.7L1187.4,551.6z"
			/>
		<path class="st0" d="M1271.3,348.5h49l73.7,203.1h-46.1l-11.6-31.9h-80.9l-11.6,31.9h-46.1L1271.3,348.5z M1271.3,476.1h49
			l-24.7-67.3L1271.3,476.1z"/>
		<path class="st0" d="M1499.9,555.3c-13.7,0-26.6-2.7-38.7-8.2s-22.7-13-31.9-22.7c-9.2-9.7-16.4-20.9-21.6-33.6
			s-7.8-26.3-7.8-40.8s2.6-28.1,7.8-40.8c5.2-12.7,12.4-23.9,21.6-33.6s19.8-17.2,31.9-22.7s25-8.2,38.7-8.2
			c13.8,0,26.8,2.7,38.9,8.2s22.7,13,31.9,22.7c9.2,9.7,16.4,20.9,21.5,33.6c5.2,12.7,7.8,26.3,7.8,40.8s-2.6,28.1-7.8,40.8
			c-5.2,12.7-12.4,23.9-21.5,33.6c-9.2,9.7-19.8,17.2-31.9,22.7S1513.7,555.3,1499.9,555.3z M1499.9,511.8c7.7,0,15-1.6,21.8-4.9
			c6.8-3.2,12.8-7.7,18.1-13.3c5.2-5.7,9.3-12.2,12.3-19.7c2.9-7.4,4.4-15.4,4.4-23.9s-1.5-16.5-4.4-23.9c-3-7.4-7-14-12.3-19.7
			c-5.2-5.7-11.2-10.1-18.1-13.3c-6.8-3.2-14.1-4.9-21.8-4.9s-15,1.6-21.8,4.9c-6.8,3.2-12.8,7.7-18.1,13.3
			c-5.2,5.7-9.3,12.2-12.3,19.7c-2.9,7.4-4.4,15.4-4.4,23.9s1.5,16.5,4.4,23.9c2.9,7.4,7,14,12.3,19.7c5.2,5.7,11.2,10.1,18.1,13.3
			C1484.9,510.2,1492.2,511.8,1499.9,511.8z"/>
	</g>
	<g>
		<path class="st0" d="M229.6,703.7"/>
		<path class="st0" d="M475.4,321.7C499.9,357.9,510,403.2,510,450c0,140.8-114.2,255-255,255c-0.7,0-1.2,0-1.9,0
			c0,0,53.3-14.6,55.9-60.9c0,0,6.3-24.5-4.5-60.9l-22.7-91.8c0,0-13.6-54.5-11.8-128.1c0,0,20,172.7,98.2,231.8c0,0,9,9.4,17.2,1.9
			C427.7,558.9,456,505.2,456,444c0-22.9-3.9-45.7-11.6-67.2c-7.5-20.9-18.4-40.5-32.2-57.8c-13.7-17.2-30.3-32.2-48.7-44.1
			c-9.4-6-19.3-12.5-30.3-15.2c-2-0.5-5.7-2.3-7.7-1.9C325.5,257.8,420,239.3,475.4,321.7z"/>
		<circle class="st0" cx="206.5" cy="265.9" r="10"/>
		<circle class="st0" cx="301.4" cy="265.9" r="10"/>
		<ellipse class="st0" cx="254.2" cy="271.9" rx="16.4" ry="10.9"/>
		<path class="st0" d="M196.4,292.3l8.1,11.8c-1.3,1.1-3.1,2.1-4.6,3.1c-1.6,1.1-3.4,2.2-5,3.4c-3.2,2.1-6.1,4.5-9.7,6
			c-3.3,1.4-6.7,1.3-8.9-1.7c-1.1-1.4-1.1-3.3-0.9-5c0.5-2.8,2.1-5,4.3-6.5c5.1-3.6,10.4-7.1,15.6-10.5
			C196,292.6,196.2,292.5,196.4,292.3z"/>
		<path class="st0" d="M311.9,291.4l-8.1,11.8c1.3,1.1,3.1,2.1,4.6,3.1c1.6,1.1,3.4,2.2,5,3.4c3.2,2.1,6.1,4.5,9.7,6
			c3.3,1.4,6.7,1.3,8.9-1.7c1.1-1.4,1.1-3.3,0.9-5c-0.5-2.8-2.1-5-4.3-6.5c-5.1-3.6-10.4-7.1-15.6-10.5
			C312.4,291.8,312.1,291.6,311.9,291.4z"/>
		<path class="st0" d="M204.7,286.8l15.4-8.1c0,0,28.2,28.2,33.6,40.9c0,0,12.7-20.9,33.6-40.9l16.4,8.1c0.9,0.5-1.9,7.9-2.2,8.7
			c-3.2,9.8-8,19.4-15.8,26.3c-8.4,7.5-19.8,10.6-30.9,10.6c-7.2,0-14.7-0.1-21.4-2.9c-6.4-2.7-11.9-7.2-16.2-12.7
			c-3-3.8-5.4-8-7.3-12.5C209.3,302.9,203.2,287.6,204.7,286.8z"/>
		<path class="st0" d="M221.9,332.3c0,0,28.2,23.7,63.6,0V345c0,1.5-14,4.9-15.2,5.2c-8.2,2-16.9,3-25.4,2c-8.2-1-15.8-4.4-23.1-8
			L221.9,332.3L221.9,332.3z"/>
		<path class="st0" d="M285.5,363.2c0,0,44.5,137.2,116.4,168.2L381,559.6C381,559.6,300.1,497.7,285.5,363.2z"/>
		<path class="st0" d="M221.9,363.2c0,0-57,214.7-203.4,181.9c0,0,20.8,42.6,93.5,14.5C111.9,559.6,206.5,523.2,221.9,363.2z"/>
		<path class="st0" d="M238.3,363.2c0,0-25.5,271.8-184.6,239.1c0.6,0.1,2,3.3,2.4,3.7c2.2,3.3,4.6,6.4,7.1,9.5
			c7.6,9.1,16.4,17.3,26.7,23.3c8.7,5.1,18.8,8.5,28.9,8.8c34.1,1.1,60.9-26.1,75.9-54.1c10.1-18.5,16.6-38.6,21.9-58.9
			c7-26.2,11.6-53.2,14.8-80.2c1.7-14.2,3.1-28.4,4.1-42.7C237,395.6,236.8,379.2,238.3,363.2z"/>
		<path class="st0" d="M269.8,565.2c-0.4-12.6-2-25.3-2.7-37.9c-0.3-4.4-0.5-8.8-0.8-13.3c-0.3-5.2-0.6-10.3-0.9-15.5
			c-0.3-5.7-0.7-11.3-1-17c-0.4-5.9-0.7-11.9-1.1-17.8c-0.4-6-0.7-12-1.1-18c-0.4-5.8-0.7-11.6-1.1-17.4c-0.3-5.4-0.6-10.7-1-16.1
			c-0.3-4.7-0.6-9.5-0.9-14.2c-0.2-3.8-0.5-7.7-0.7-11.5c-0.2-3.4-0.3-6.8-0.6-10.2c-0.1-0.8-0.1-1.5-0.2-2.3
			c-0.4-3.3-1-6.5-1.5-9.8c-0.1-0.3-0.1-0.6-0.2-0.9c-0.3-0.9-1.1-1.4-1.7-2c-0.8,0.6-1.4,1.1-1.8,2.1c-0.1,0.3-0.2,0.6-0.2,0.9
			c-0.7,3.9-1.6,8-1.7,12.1c0,1-0.1,2-0.1,3c-0.1,3.1-0.3,6-0.4,9.1c-0.2,4.1-0.4,8.3-0.6,12.5c-0.2,5-0.5,10-0.7,14.9
			c-0.3,5.6-0.5,11-0.8,16.6c-0.3,5.7-0.5,11.5-0.8,17.2c-0.3,5.7-0.5,11.4-0.8,17c-0.2,5.4-0.5,10.6-0.7,16
			c-0.2,4.7-0.4,9.3-0.6,14c-0.2,3.7-0.3,7.4-0.5,11.1c-0.1,2.4-0.2,4.9-0.3,7.3c0,0.9-0.1,1.7-0.1,2.6
			c-2.3,51.2-11.5,108.3-48.6,146.6c-9.4,9.8-21,17.3-34.2,20.6c0.7-0.2,3.1,1.2,3.7,1.5c3.4,1.2,7,2.1,10.5,2.8
			c11.6,2.1,23.8,1.3,35-2.5C260.7,669.7,271.2,611.3,269.8,565.2z"/>
		<path class="st0" d="M258.1,238.1c6-3.4,12.5-6.2,19.1-8.6c6.5-2.4,13.2-4.2,19.9-5.7c11.4-2.4,23-3.4,34.6-3.3
			c6.8,0.1,13.5,0.8,20.2,1.7c5.5,0.9,16.4,1.1,20.9,4.5c0,0-40-28.2-102.7-31.8h-15c-140.8,0-255,114.2-255,255
			c0,8.7-0.8,17.8,1.6,26.2c2.3,8.1,6.3,16,11.7,22.6s12.5,11.5,20.9,13.5c7,1.7,14.5,1.4,21.5-0.1c0.5-0.1,9.5-2.5,9.4-3
			C58,488.8,54.2,466.9,54.2,444c0-31.1,7.3-62.1,21.2-89.8c13.5-27,33.1-50.8,57.1-69.2c11.4-8.8,23.7-16.4,36.7-22.5
			c10.9-5.2,22.4-9.4,34.3-11.7c6.2-1.2,12.6-2.1,19-2.2c3.3,0,6.5,0.1,9.7,0.5l7.2,0.8L258.1,238.1z"/>
	</g>
</g>
</svg>
