<?xml version="1.0" encoding="utf-8"?>
<!-- Generator: Adobe Illustrator 24.0.1, SVG Export Plug-In . SVG Version: 6.00 Build 0)  -->
<svg version="1.1" id="Layer_1" xmlns="http://www.w3.org/2000/svg" xmlns:xlink="http://www.w3.org/1999/xlink" x="0px" y="0px"
	 viewBox="0 0 1600 900" style="enable-background:new 0 0 1600 900;" xml:space="preserve">
<style type="text/css">
	.st0{fill:#F7F8F8;}
</style>
<g>
	<g>
		<path class="st0" d="M703.8,555.3c-13.7,0-26.6-2.7-38.7-8.2c-12.1-5.5-22.7-13-31.9-22.7c-9.2-9.7-16.4-20.9-21.6-33.6
			c-5.2-12.7-7.8-26.3-7.8-40.8c0-14.5,2.6-28.1,7.8-40.8c5.2-12.7,12.4-23.9,21.6-33.6c9.2-9.7,19.8-17.2,31.9-22.7
			c12.1-5.5,25-8.2,38.7-8.2c13.8,0,26.8,2.7,38.9,8.2c12.1,5.5,22.7,13,31.9,22.7c9.2,9.7,16.4,20.9,21.5,33.6
			c5.2,12.7,7.8,26.3,7.8,40.8c0,14.5-2.6,28.1-7.8,40.8c-5.2,12.7-12.4,23.9-21.5,33.6c-9.2,9.7-19.8,17.2-31.9,22.7
			C730.5,552.6,717.6,555.3,703.8,555.3z M703.8,511.8c7.7,0,15-1.6,21.8-4.9c6.8-3.2,12.8-7.7,18.1-13.3
			c5.2-5.7,9.3-12.2,12.3-19.7c2.9-7.4,4.4-15.4,4.4-23.9s-1.5-16.5-4.4-23.9c-3-7.4-7-14-12.3-19.7c-5.2-5.7-11.2-10.1-18.1-13.3
			c-6.8-3.2-14.1-4.9-21.8-4.9c-7.7,0-15,1.6-21.8,4.9c-6.8,3.2-12.8,7.7-18.1,13.3c-5.2,5.7-9.3,12.2-12.3,19.7
			c-3,7.4-4.4,15.4-4.4,23.9s1.5,16.5,4.4,23.9c2.9,7.4,7,14,12.3,19.7c5.2,5.7,11.2,10.1,18.1,13.3
			C688.7,510.2,696,511.8,703.8,511.8z"/>
		<path class="st0" d="M883.3,348.5h49l73.7,203.1h-46.1l-11.6-31.9h-81l-11.6,31.9h-46.1L883.3,348.5z M883.3,476.1h49l-24.7-67.3
			L883.3,476.1z"/>
		<path class="st0" d="M1187.4,551.6h-56.9l-51.9-73.4l-5.8,7v66.4h-43.5V348.5h43.5v69.1l57.7-69.1h56.9l-80.4,95.7L1187.4,551.6z"
			/>
		<path class="st0" d="M1271.3,348.5h49l73.7,203.1h-46.1l-11.6-31.9h-80.9l-11.6,31.9h-46.1L1271.3,348.5z M1271.3,476.1h49
			l-24.7-67.3L1271.3,476.1z"/>
		<path class="st0" d="M1499.9,555.3c-13.7,0-26.6-2.7-38.7-8.2s-22.7-13-31.9-22.7c-9.2-9.7-16.4-20.9-21.6-33.6
			c-5.2-12.7-7.8-26.3-7.8-40.8c0-14.5,2.6-28.1,7.8-40.8c5.2-12.7,12.4-23.9,21.6-33.6c9.2-9.7,19.8-17.2,31.9-22.7
			c12.1-5.5,25-8.2,38.7-8.2c13.8,0,26.8,2.7,38.9,8.2c12.1,5.5,22.7,13,31.9,22.7c9.2,9.7,16.4,20.9,21.5,33.6
			c5.2,12.7,7.8,26.3,7.8,40.8c0,14.5-2.6,28.1-7.8,40.8c-5.2,12.7-12.4,23.9-21.5,33.6c-9.2,9.7-19.8,17.2-31.9,22.7
			S1513.7,555.3,1499.9,555.3z M1499.9,511.8c7.7,0,15-1.6,21.8-4.9c6.8-3.2,12.8-7.7,18.1-13.3c5.2-5.7,9.3-12.2,12.3-19.7
			c2.9-7.4,4.4-15.4,4.4-23.9s-1.5-16.5-4.4-23.9c-3-7.4-7-14-12.3-19.7c-5.2-5.7-11.2-10.1-18.1-13.3c-6.8-3.2-14.1-4.9-21.8-4.9
			s-15,1.6-21.8,4.9c-6.8,3.2-12.8,7.7-18.1,13.3c-5.2,5.7-9.3,12.2-12.3,19.7c-2.9,7.4-4.4,15.4-4.4,23.9s1.5,16.5,4.4,23.9
			c2.9,7.4,7,14,12.3,19.7c5.2,5.7,11.2,10.1,18.1,13.3C1484.9,510.2,1492.2,511.8,1499.9,511.8z"/>
	</g>
	<g>
		<path class="st0" d="M239.7,714.9"/>
		<path class="st0" d="M496.4,316c25.5,37.8,36.1,85.1,36.1,134c0,147-119.2,266.2-266.2,266.2c-0.7,0-1.3,0-2,0
			c0,0,55.6-15.2,58.4-63.6c0,0,6.6-25.6-4.7-63.6l-23.7-95.9c0,0-14.2-56.9-12.3-133.8c0,0,20.9,180.3,102.5,242c0,0,9.4,9.8,18,2
			c44.1-39.6,73.6-95.7,73.6-159.6c0-23.9-4.1-47.7-12.1-70.2c-7.8-21.8-19.2-42.3-33.6-60.4c-14.3-18-31.6-33.6-50.9-46
			c-9.8-6.3-20.1-13.1-31.6-15.9c-2.1-0.5-6-2.4-8-2C339.9,249.3,438.5,230,496.4,316z"/>
		<circle class="st0" cx="215.6" cy="257.8" r="10.4"/>
		<circle class="st0" cx="314.7" cy="257.8" r="10.4"/>
		<ellipse class="st0" cx="265.4" cy="264" rx="17.1" ry="11.4"/>
		<path class="st0" d="M205.1,285.3c0,0,8.5,12.3,8.5,12.3c-1.4,1.2-3.2,2.2-4.8,3.2c-1.7,1.2-3.5,2.3-5.2,3.5
			c-3.3,2.2-6.4,4.7-10.1,6.3c-3.4,1.5-7,1.4-9.3-1.8c-1.1-1.5-1.2-3.4-0.9-5.2c0.5-2.9,2.2-5.2,4.5-6.8c5.3-3.8,10.9-7.4,16.3-11
			C204.6,285.7,204.8,285.5,205.1,285.3z"/>
		<path class="st0" d="M325.7,284.4c0,0-8.5,12.3-8.5,12.3c1.4,1.2,3.2,2.2,4.8,3.2c1.7,1.2,3.5,2.3,5.2,3.5
			c3.3,2.2,6.4,4.7,10.1,6.3c3.4,1.5,7,1.4,9.3-1.8c1.1-1.5,1.2-3.4,0.9-5.2c-0.5-2.9-2.2-5.2-4.5-6.8c-5.3-3.8-10.9-7.4-16.3-11
			C326.2,284.8,325.9,284.6,325.7,284.4z"/>
		<path class="st0" d="M213.7,279.6c0,0,16.1-8.5,16.1-8.5s29.4,29.4,35.1,42.7c0,0,13.3-21.8,35.1-42.7c0,0,17.1,8.5,17.1,8.5
			c0.9,0.5-2,8.2-2.3,9.1c-3.3,10.2-8.4,20.3-16.5,27.5c-8.8,7.8-20.7,11.1-32.3,11.1c-7.5,0-15.3-0.1-22.3-3
			c-6.7-2.8-12.4-7.5-16.9-13.3c-3.1-4-5.6-8.4-7.6-13C218.5,296.4,212.2,280.4,213.7,279.6z"/>
		<path class="st0" d="M231.7,327.1c0,0,29.4,24.7,66.4,0c0,0,0,13.3,0,13.3c0,1.6-14.6,5.1-15.9,5.4c-8.6,2.1-17.6,3.1-26.5,2.1
			c-8.6-1-16.5-4.6-24.1-8.4V327.1z"/>
		<path class="st0" d="M298.1,359.4c0,0,46.5,143.3,121.5,175.6l-21.8,29.4C397.8,564.4,313.3,499.8,298.1,359.4z"/>
		<path class="st0" d="M231.7,359.4c0,0-59.5,224.2-212.4,189.9c0,0,21.7,44.5,97.6,15.1C116.8,564.4,215.6,526.4,231.7,359.4z"/>
		<path class="st0" d="M248.8,359.4c0,0-26.6,283.8-192.7,249.6c0.6,0.1,2.1,3.4,2.5,3.9c2.3,3.4,4.8,6.7,7.4,9.9
			c7.9,9.5,17.1,18.1,27.9,24.3c9.1,5.3,19.6,8.9,30.2,9.2c35.6,1.1,63.6-27.3,79.3-56.5c10.5-19.3,17.3-40.3,22.9-61.5
			c7.3-27.4,12.1-55.5,15.5-83.7c1.8-14.8,3.2-29.7,4.3-44.6C247.4,393.2,247.2,376.1,248.8,359.4z"/>
		<path class="st0" d="M281.7,570.3c-0.4-13.2-2.1-26.4-2.8-39.6c-0.3-4.6-0.5-9.2-0.8-13.9c-0.3-5.4-0.6-10.8-0.9-16.2
			c-0.3-5.9-0.7-11.8-1-17.8c-0.4-6.2-0.7-12.4-1.1-18.6c-0.4-6.3-0.7-12.5-1.1-18.8c-0.4-6.1-0.7-12.1-1.1-18.2
			c-0.3-5.6-0.6-11.2-1-16.8c-0.3-4.9-0.6-9.9-0.9-14.8c-0.2-4-0.5-8-0.7-12c-0.2-3.5-0.3-7.1-0.6-10.7c-0.1-0.8-0.1-1.6-0.2-2.4
			c-0.4-3.4-1-6.8-1.6-10.2c-0.1-0.3-0.1-0.6-0.2-0.9c-0.3-0.9-1.1-1.5-1.8-2.1c-0.8,0.6-1.5,1.2-1.9,2.2c-0.1,0.3-0.2,0.6-0.2,0.9
			c-0.7,4.1-1.7,8.4-1.8,12.6c0,1-0.1,2.1-0.1,3.1c-0.1,3.2-0.3,6.3-0.4,9.5c-0.2,4.3-0.4,8.7-0.6,13c-0.2,5.2-0.5,10.4-0.7,15.6
			c-0.3,5.8-0.5,11.5-0.8,17.3c-0.3,6-0.5,12-0.8,18c-0.3,5.9-0.5,11.9-0.8,17.8c-0.2,5.6-0.5,11.1-0.7,16.7
			c-0.2,4.9-0.4,9.7-0.6,14.6c-0.2,3.9-0.3,7.7-0.5,11.6c-0.1,2.5-0.2,5.1-0.3,7.6c0,0.9-0.1,1.8-0.1,2.7
			c-2.4,53.5-12,113.1-50.7,153.1c-9.8,10.2-21.9,18.1-35.7,21.5c0.7-0.2,3.2,1.3,3.9,1.6c3.6,1.3,7.3,2.2,11,2.9
			c12.1,2.2,24.8,1.4,36.5-2.6C272.2,679.4,283.2,618.4,281.7,570.3z"/>
		<path class="st0" d="M269.5,228.8c6.3-3.6,13-6.5,19.9-9c6.8-2.5,13.8-4.4,20.8-5.9c11.9-2.5,24-3.6,36.1-3.4
			c7.1,0.1,14.1,0.8,21.1,1.8c5.7,0.9,17.1,1.2,21.8,4.7c0,0-41.8-29.4-107.2-33.2h-15.7C119.3,183.8,0.1,303,0.1,450
			c0,9.1-0.8,18.6,1.7,27.4c2.4,8.5,6.6,16.7,12.2,23.6c5.6,6.9,13.1,12,21.8,14.1c7.3,1.8,15.1,1.5,22.4-0.1
			c0.5-0.1,9.9-2.6,9.8-3.1c-7.4-21.4-11.4-44.3-11.4-68.2c0-32.5,7.6-64.8,22.1-93.8c14.1-28.2,34.6-53,59.6-72.3
			c11.9-9.2,24.7-17.1,38.3-23.5c11.4-5.4,23.4-9.8,35.8-12.2c6.5-1.3,13.2-2.2,19.8-2.3c3.4,0,6.8,0.1,10.1,0.5l7.5,0.8
			L269.5,228.8z"/>
	</g>
</g>
</svg>
