<?xml version="1.0" encoding="utf-8"?>
<!-- Generator: Adobe Illustrator 24.0.1, SVG Export Plug-In . SVG Version: 6.00 Build 0)  -->
<svg version="1.1" id="Layer_1" xmlns="http://www.w3.org/2000/svg" xmlns:xlink="http://www.w3.org/1999/xlink" x="0px" y="0px"
	 viewBox="0 0 1600 900" style="enable-background:new 0 0 1600 900;" xml:space="preserve">
<style type="text/css">
	.st0{fill:#F7F8F8;}
</style>
<g>
	<g>
		<path class="st0" d="M1049.6,615.8c19.8,0,27.7-15.3,27.7-32.5s-7.9-32.4-27.7-32.4c-19.8,0-27.7,15.1-27.7,32.4
			S1029.7,615.8,1049.6,615.8z"/>
		<polygon class="st0" points="1266.8,553.3 1266.5,553.3 1252.9,594.1 1280.5,594.1 		"/>
		<path class="st0" d="M101.4,650.5c466.6,0,932,0,1397.8,0c0-44.7,0-88.2,0-133.7c-467.2,0-932.6,0-1397.8,0
			C101.4,562.3,101.4,606.7,101.4,650.5z M1338.5,541.3h12.9v72.8h42.5v11.2h-55.4V541.3z M1259.7,541.3h14l31.5,84h-14.1l-6.9-20.2
			H1249l-6.9,20.2h-13.6L1259.7,541.3z M1128,541.3h14.8l39,64.6h0.2v-64.6h13v84h-14.8l-39.1-64.6h-0.2v64.6H1128V541.3z
			 M1049.6,539.7c25.1,0,41.2,18.3,41.2,43.6s-16.1,43.7-41.2,43.7c-25.1,0-41.2-18.4-41.2-43.7S1024.4,539.7,1049.6,539.7z
			 M958.2,541.3h12.9v84h-12.9V541.3z M856.2,541.3h67.3v11.2h-27.1v72.8h-13v-72.8h-27.1V541.3z M794.9,541.3h14l31.5,84h-14.1
			l-6.9-20.2h-35.1l-6.9,20.2h-13.6L794.9,541.3z M663.2,541.3h14.8l39,64.6h0.2v-64.6h13v84h-14.8l-39.1-64.6h-0.2v64.6h-12.9
			V541.3z M561.5,541.3h35c18.6,0,28.5,8.7,28.5,24.2c0,10.7-6.5,18.4-15.7,20.5v0.2c19.5,3.6,12.3,36.8,16.9,38.2v0.8h-13.9
			c-3.8-3.5,4.2-32.9-16.3-32.9h-21.6v32.9h-12.9V541.3z M464.1,541.3h59.4v11.2h-46.5v23.8h40.7v11.2h-40.7v26.7h47.7v11.2h-60.6
			V541.3z M362.1,541.3h67.3v11.2h-27.1v72.8h-13v-72.8h-27.1V541.3z M260.3,541.3h14.8l39,64.6h0.2v-64.6h13v84h-14.8l-39.1-64.6
			h-0.2v64.6h-12.9V541.3z M206.1,541.3H219v84h-12.9V541.3z"/>
		<polygon class="st0" points="801.9,553.3 801.7,553.3 788.1,594.1 815.7,594.1 		"/>
		<path class="st0" d="M612,566.4c0-9-5.2-14-18.1-14h-19.5v28.8h19.3C605.5,581.2,612,576.1,612,566.4z"/>
		<path class="st0" d="M837.3,300.3c14.2,48.7,28.5,97.4,42.7,146c11.3,0,21.2,0,32,0c15.2-47.5,30.3-94.8,45.3-142.1
			c1,0.2,2.1,0.3,3.1,0.5c0,47.2,0,94.4,0,141.3c12.1,0,22.6,0,33.3,0c0-61.8,0-122.8,0-184.7c-16.9,0-32.4,0-50.7,0
			c-14.7,43.9-29.4,88.1-45.4,135.9c-14.2-48.5-25.6-93-41.9-136.3c-17.9-0.3-34.3-1.8-51.3,0.9c0,62.1,0,123.2,0,183.9
			c11.6,0,21.9,0,33.2,0C837.4,396.6,838.7,348.6,837.3,300.3z"/>
		<path class="st0" d="M102.3,292.4c18.3,0,36,0,55.6,0c0,52.1,0,103.1,0,154.2c12.9,0,23.9,0,36.7,0c0-51.6,0-102.7,0-155.3
			c20,0,38.1,0,56.3,0c0.2-11,1.6-20.4-0.9-30.1c-49.8,0-99.2,0-150,0C101.3,271.9,98.4,281.8,102.3,292.4z"/>
		<path class="st0" d="M288.2,389.9c0-37.5,6.6-45.5,43.3-52.5c0-10.3,0-20.7,0-31.5c-17.5-1.5-30.2,6.8-41.6,17.8
			c-3.7-4.9,0.1-11.2-6.7-15.1c-9-0.5-19.4-2-29.9,1.4c0,45.8,0,91.2,0,136.2c12.2,0,23.1,0,34.9,0
			C288.2,426.6,288.2,408.3,288.2,389.9z"/>
		<path class="st0" d="M1385,445.8c38.2,0,76,0,113.6,0c1.8-5.1,2.2-9.3-1.1-12.8c-40.1,0-80,0-120.2,0
			C1378.4,439.2,1381.6,442.8,1385,445.8z"/>
		<path class="st0" d="M1323.7,355.9c47.7,0,95.5,0,143.3,0c2.3-4.7,3-8.6-0.3-11.9c-48.3,0-96.1,0-143,0
			C1320.3,347.9,1320.4,351,1323.7,355.9z"/>
		<path class="st0" d="M1486,273.8c4.7-3.9,3.3-8.6,1.3-13.5c-35.9,0-70.8,0-105.5,0c-3.2,4.3-8,7.1-6.8,13.5
			C1411.7,273.8,1448.4,273.8,1486,273.8z"/>
		<path class="st0" d="M1442.8,301.2c-29.3,0-58.9,0-89.3,0c-2,4.6-8.6,6.7-7.4,13.8c33.5,0,66.8,0,99.9,0
			C1448.4,309.1,1448.4,304.6,1442.8,301.2z"/>
		<path class="st0" d="M1355.6,402c18.2,0,35.8,0,53.2,0c0.8-5.4,2.1-9.9-3-13.2c-18.6,0-37.5,0-59,0
			C1350,395,1351.7,399.6,1355.6,402z"/>
		<path class="st0" d="M1196.3,446c-0.4,0-0.9,0-1.3,0c0.2,0.4,0.3,0.9,0.5,1.3C1195.8,446.9,1196,446.5,1196.3,446z"/>
		<path class="st0" d="M1278.3,379.1c15.2,24.2,28.7,45.7,41.8,66.4c14.1,0,27,0,41.4,0c-21.1-32.7-41.3-63.9-61.7-95.3
			c20-29.6,39.4-58.3,60.1-89c-14.6,0-25.7,0-38,0c-13.6,20.6-27.5,41.7-42.2,64.1c-11.8-19.1-22.4-36.1-33-53.1
			c-3.9-6.4-8.2-11.8-16.8-11.5c-9.9,0.3-19.7,0.1-32.2,0.1c20.9,32.2,40.4,62.3,60.3,93c-20.5,30.7-40.4,60.5-61.7,92.5
			c13.3,0,26.4,0,39.5,0C1249.6,424.4,1263,403.3,1278.3,379.1z"/>
		<path class="st0" d="M1071.9,400.4c23.6,0,45.8,0,68,0c5.9,15.6,11.6,30.6,17.2,45.6c12.8,0,25.4,0,37.9,0
			c-23.3-64.1-45.3-125.1-67.1-185c-16.4,0-29.7,0-44.1,0c-21.3,61.5-42.5,122.8-64,185c12.7,0,24.1,0,35.6,0
			C1061.1,430.4,1066.5,415.3,1071.9,400.4z M1104.9,291.2c9.3,27.6,17.7,52.3,26.7,78.8c-18.3,0-33.7,0-51.4,0
			C1088.3,344.2,1096.1,319.2,1104.9,291.2z"/>
		<path class="st0" d="M371.3,365.9c-23.2,8.8-32.9,24.8-29.3,49.5c3.1,20.7,19.4,33.9,42.3,35c14.9,0.7,28.8-1.5,40.7-11.1
			c11,13.9,24.5,6.4,37,6.8c0-32.1,0.4-62.7-0.1-93.3c-0.4-24.1-10.2-37.9-31-44.1c-16.9-5-34.2-5.1-51.1-0.1
			c-19.6,5.7-30.7,18.9-31.9,40.5c10.8,0,21.3,0,31.7,0c7.6-15.5,19.1-20.9,34.8-16c13.5,4.2,12.6,14.9,11.2,26.6
			C407.4,361.2,388.9,359.2,371.3,365.9z M393.3,424c-9.6-1.3-15.1-6.7-16.5-15.9c-1.5-9.8,2.2-17.6,11.8-21.2
			c11.6-4.4,23.7-4.7,37.1-3C427.3,414.5,416.6,427.2,393.3,424z"/>
		<path class="st0" d="M713.3,450.1c29.6-0.3,50.3-16.3,56.5-44.1c-10.5,0-20.9,0-32,0c-8.6,15.8-22.8,19.9-38.4,14
			c-13.8-5.2-18.5-18-18.5-33.7c30.1,0,59.6,0,89.6,0c8.4-30-7.3-66.3-31.2-75.6c-44.6-17.5-83,3.9-92.9,50.8
			c-3.1,14.8-1.5,29,1.8,43.1C655.4,434.7,678.6,450.5,713.3,450.1z M709.2,331.9c18.2-0.6,26,7.4,28.4,30.4c-18.6,0-36.2,0-53.8,0
			C684.2,341.5,692,332.4,709.2,331.9z"/>
		<path class="st0" d="M582.4,438.4c3.6,1.8,2.3,7.7,2.3,7.7c14.6,0,24.5,0,33.9,0c0-65.4,0-129.8,0-194.8
			c-12.2-1.5-23-3.8-34.3,1.9c0,19.7,0,39.2,0,60.5c-27.4-11.9-52-13.1-73.1,5.4c-23,20.2-27.9,47.7-22.6,76.6
			C498.1,447.3,539.6,465.8,582.4,438.4z M529.1,350.6c6.5-14.6,19-17.5,33.3-15.7c14.7,1.8,20.8,11.3,21.9,25.1
			c0.5,5.5,1.1,11.1,1.7,16.9c-0.8,7.4-0.7,15.4-2.6,22.9c-2.9,11.5-9.5,20-22.6,21.1c-13.7,1.2-25.5-1.1-31.8-15.4
			C521,387.1,521,368.8,529.1,350.6z"/>
	</g>
</g>
</svg>
